<?xml version="1.0" encoding="UTF-8"?>
<!DOCTYPE svg PUBLIC "-//W3C//DTD SVG 1.1//EN" "http://www.w3.org/Graphics/SVG/1.1/DTD/svg11.dtd">
<svg xmlns="http://www.w3.org/2000/svg" version="1.1" width="449px" height="425px" style="shape-rendering:geometricPrecision; text-rendering:geometricPrecision; image-rendering:optimizeQuality; fill-rule:evenodd; clip-rule:evenodd" xmlns:xlink="http://www.w3.org/1999/xlink">
<g><path style="opacity:0.94" fill="#fcd823" d="M 211.5,20.5 C 213.167,20.5 214.833,20.5 216.5,20.5C 216.666,24.8461 216.499,29.1794 216,33.5C 213.978,34.9909 212.312,34.6576 211,32.5C 210.238,28.4126 210.404,24.4126 211.5,20.5 Z"/></g>
<g><path style="opacity:0.988" fill="#fdd61f" d="M 264.5,73.5 C 259.667,73.8404 259.167,75.507 263,78.5C 263.49,79.7932 263.657,81.1266 263.5,82.5C 267.33,82.6269 268.663,84.2936 267.5,87.5C 265.278,87.178 263.444,87.8446 262,89.5C 260,95.8333 260,102.167 262,108.5C 264.041,109.423 266.208,109.756 268.5,109.5C 269.496,109.586 270.329,109.252 271,108.5C 271.219,107.062 271.719,105.729 272.5,104.5C 273.167,108.167 273.833,111.833 274.5,115.5C 275.167,116.167 275.833,116.833 276.5,117.5C 276.208,109.222 276.541,100.889 277.5,92.5C 279.137,97.7742 280.137,103.441 280.5,109.5C 281.107,109.376 281.44,109.043 281.5,108.5C 282.49,102.355 282.823,96.0221 282.5,89.5C 284.124,89.6399 285.29,88.9733 286,87.5C 286.49,88.7932 286.657,90.1266 286.5,91.5C 286.096,97.2896 286.596,102.956 288,108.5C 293.384,110.93 296.217,109.263 296.5,103.5C 297.117,103.389 297.617,103.056 298,102.5C 298.333,100.167 298.667,97.8333 299,95.5C 299.452,98.8772 300.118,102.211 301,105.5C 301.074,101.299 301.907,97.2985 303.5,93.5C 304.167,98.6511 304.834,103.651 305.5,108.5C 305.842,109.338 306.508,109.672 307.5,109.5C 308.329,102.011 308.829,94.3443 309,86.5C 309.582,90.824 310.082,95.1573 310.5,99.5C 310.556,101.64 311.223,103.306 312.5,104.5C 313.232,109.151 315.899,110.651 320.5,109C 321.381,108.292 322.047,107.458 322.5,106.5C 323.326,101.684 323.826,96.6835 324,91.5C 323.892,96.2803 324.725,100.614 326.5,104.5C 326.468,109.213 328.801,110.713 333.5,109C 334,108.5 334.5,108 335,107.5C 335.751,101.116 335.584,94.783 334.5,88.5C 334.999,85.6108 336.499,84.9442 339,86.5C 340.538,92.685 342.038,98.8517 343.5,105C 343.167,105.833 342.833,106.667 342.5,107.5C 341.571,106.311 341.238,104.978 341.5,103.5C 338.32,103.176 337.153,104.51 338,107.5C 339.333,108.167 340.667,108.833 342,109.5C 344.191,111.706 345.691,114.372 346.5,117.5C 347.332,107.183 347.832,96.8494 348,86.5C 348.692,85.9747 349.192,85.3081 349.5,84.5C 347.744,84.6405 346.078,84.1405 344.5,83C 345.793,82.51 347.127,82.3433 348.5,82.5C 349.552,82.3505 350.552,82.5172 351.5,83C 353.726,84.9197 356.059,86.753 358.5,88.5C 357.482,89.8524 356.149,90.8524 354.5,91.5C 355.325,92.3857 356.325,92.719 357.5,92.5C 357.171,98.2055 357.505,103.872 358.5,109.5C 359.331,102.524 359.831,95.5236 360,88.5C 363.537,89.6426 364.704,91.8093 363.5,95C 364,95.5 364.5,96 365,96.5C 365.333,100.5 365.667,104.5 366,108.5C 369.289,109.16 372.456,109.493 375.5,109.5C 376.398,110.158 377.398,110.824 378.5,111.5C 378.333,111.833 378.167,112.167 378,112.5C 374.651,112.254 371.151,112.254 367.5,112.5C 367.645,115.052 368.145,117.385 369,119.5C 368.086,120.654 367.253,120.487 366.5,119C 365.167,118.333 363.833,118.333 362.5,119C 362.12,121.326 361.12,123.159 359.5,124.5C 355.069,123.53 352.735,125.197 352.5,129.5C 351.167,128.5 349.833,127.5 348.5,126.5C 346.504,124.667 344.171,124.167 341.5,125C 340.027,125.71 339.36,126.876 339.5,128.5C 338.356,132.964 337.69,137.63 337.5,142.5C 336.5,142.5 335.5,142.5 334.5,142.5C 334.822,136.642 334.489,130.975 333.5,125.5C 333.565,125.062 333.399,124.728 333,124.5C 331.786,126.049 330.286,127.215 328.5,128C 329.094,128.464 329.761,128.631 330.5,128.5C 330.5,134.5 330.5,140.5 330.5,146.5C 327.976,146.571 325.976,145.571 324.5,143.5C 323.833,138.349 323.166,133.349 322.5,128.5C 321.116,124.539 318.449,123.539 314.5,125.5C 312.287,131.39 311.954,137.39 313.5,143.5C 312.732,144.263 312.232,145.263 312,146.5C 311.195,144.099 310.362,144.266 309.5,147C 310.833,147.333 312.167,147.667 313.5,148C 312.237,151.058 311.237,154.225 310.5,157.5C 309.019,159.149 307.352,160.482 305.5,161.5C 305.063,163.074 304.063,164.241 302.5,165C 303.448,165.483 304.448,165.649 305.5,165.5C 305.171,171.206 305.505,176.872 306.5,182.5C 307.107,182.376 307.44,182.043 307.5,181.5C 308.328,175.347 308.828,169.013 309,162.5C 309.333,166.167 309.667,169.833 310,173.5C 309.947,170.325 310.78,167.658 312.5,165.5C 312.051,171.359 312.717,177.025 314.5,182.5C 314.586,183.496 314.252,184.329 313.5,185C 311.527,185.495 309.527,185.662 307.5,185.5C 307.215,187.288 307.548,188.955 308.5,190.5C 309.396,189.494 310.062,189.494 310.5,190.5C 309.846,192.115 309.346,193.782 309,195.5C 307.989,196.337 306.822,196.67 305.5,196.5C 305.773,194.042 304.773,192.375 302.5,191.5C 301.41,192.391 301.41,193.391 302.5,194.5C 300.257,195.474 297.924,195.808 295.5,195.5C 295.827,185.319 295.494,175.319 294.5,165.5C 294.762,164.022 294.429,162.689 293.5,161.5C 292.315,162.853 290.981,164.02 289.5,165C 290.737,165.232 291.737,165.732 292.5,166.5C 291.167,166.5 289.833,166.5 288.5,166.5C 288.649,165.448 288.483,164.448 288,163.5C 287.667,163.833 287.333,164.167 287,164.5C 283.468,159.132 282.968,159.299 285.5,165C 283.26,168.284 282.927,171.784 284.5,175.5C 283.892,178.145 283.392,180.812 283,183.5C 282.722,182.584 282.222,181.918 281.5,181.5C 281.83,174.8 281.497,168.134 280.5,161.5C 279.315,162.853 277.981,164.02 276.5,165C 277.737,165.232 278.737,165.732 279.5,166.5C 278.069,166.881 277.236,167.881 277,169.5C 276.667,173.833 276.333,178.167 276,182.5C 275.692,183.308 275.192,183.975 274.5,184.5C 274.167,183.333 273.833,182.167 273.5,181C 275.006,175.949 275.672,170.782 275.5,165.5C 273.876,165.64 272.71,164.973 272,163.5C 271.29,164.973 270.124,165.64 268.5,165.5C 268.762,164.022 268.429,162.689 267.5,161.5C 266.893,161.624 266.56,161.957 266.5,162.5C 264.444,160.76 263.111,158.427 262.5,155.5C 260.574,158.072 258.241,160.072 255.5,161.5C 253.473,161.338 251.473,161.505 249.5,162C 248.944,162.383 248.611,162.883 248.5,163.5C 247.167,163.5 245.833,163.5 244.5,163.5C 236.241,159.665 232.908,162.498 234.5,172C 234.591,175.217 234.925,178.384 235.5,181.5C 234.883,181.611 234.383,181.944 234,182.5C 232.306,178.604 231.14,178.938 230.5,183.5C 229.893,183.376 229.56,183.043 229.5,182.5C 229.83,175.468 229.497,168.468 228.5,161.5C 227.315,162.853 225.981,164.02 224.5,165C 225.094,165.464 225.761,165.631 226.5,165.5C 226.666,171.176 226.499,176.843 226,182.5C 223.835,184.653 223.002,187.319 223.5,190.5C 221.4,190.477 219.567,191.144 218,192.5C 215.369,190.932 213.203,191.432 211.5,194C 217.195,195.44 222.195,194.274 226.5,190.5C 227.244,191.991 227.91,193.491 228.5,195C 227.263,195.232 226.263,195.732 225.5,196.5C 220.851,197.065 216.184,197.565 211.5,198C 209.667,199.167 207.833,200.333 206,201.5C 202.982,196.735 199.649,196.402 196,200.5C 195.503,202.81 195.337,205.143 195.5,207.5C 194.5,207.5 193.5,207.5 192.5,207.5C 192.726,204.751 192.393,202.084 191.5,199.5C 188.284,196.68 185.451,197.013 183,200.5C 182.667,204.167 182.333,207.833 182,211.5C 181.586,211.957 181.086,212.291 180.5,212.5C 179.778,208.153 179.112,203.82 178.5,199.5C 176.827,197.914 174.827,197.247 172.5,197.5C 171.325,197.719 170.325,197.386 169.5,196.5C 170.5,195.667 171.5,194.833 172.5,194C 170.661,192.868 168.661,192.035 166.5,191.5C 165.269,190.349 165.269,189.183 166.5,188C 165.552,187.517 164.552,187.351 163.5,187.5C 163.5,186.5 163.5,185.5 163.5,184.5C 164.833,184.5 166.167,184.5 167.5,184.5C 167.402,182.447 168.069,180.78 169.5,179.5C 170.339,181.384 171.672,182.717 173.5,183.5C 174.374,184.525 175.541,185.192 177,185.5C 179.571,184.75 181.738,183.417 183.5,181.5C 185.663,183.432 187.997,183.765 190.5,182.5C 192.263,183.63 194.096,183.63 196,182.5C 198.591,184.295 201.257,184.629 204,183.5C 204.822,175.988 204.655,168.655 203.5,161.5C 202.167,162.167 200.833,162.833 199.5,163.5C 200.094,161.173 200.094,158.673 199.5,156C 199.629,154.019 200.296,152.353 201.5,151C 200.809,149.933 200.309,148.766 200,147.5C 199.5,141.175 199.334,134.842 199.5,128.5C 200.49,134.31 200.823,140.31 200.5,146.5C 201.5,146.5 202.5,146.5 203.5,146.5C 203.831,139.137 203.497,131.803 202.5,124.5C 201.451,126.216 200.118,127.549 198.5,128.5C 198.663,130.857 198.497,133.19 198,135.5C 197.667,134.167 197.333,132.833 197,131.5C 196.027,133.392 195.36,135.392 195,137.5C 194.667,134.5 194.333,131.5 194,128.5C 193.819,131.695 193.319,134.695 192.5,137.5C 192.854,133.363 192.354,129.363 191,125.5C 187.606,123.725 184.94,124.392 183,127.5C 182.501,132.823 182.334,138.156 182.5,143.5C 182.179,145.048 181.179,145.715 179.5,145.5C 179.657,146.873 179.49,148.207 179,149.5C 178.283,148.956 177.783,148.289 177.5,147.5C 177.5,147.167 177.5,146.833 177.5,146.5C 177.5,139.167 177.5,131.833 177.5,124.5C 177.64,122.876 176.973,121.71 175.5,121C 176.337,119.989 176.67,118.822 176.5,117.5C 175.07,117.421 173.736,117.754 172.5,118.5C 171.833,111.167 171.167,103.833 170.5,96.5C 169.376,98.3686 168.543,100.369 168,102.5C 167.821,98.9748 167.321,95.6414 166.5,92.5C 164.824,87.3334 161.824,86.3334 157.5,89.5C 156.691,91.0709 156.357,92.7376 156.5,94.5C 155.675,98.6472 155.175,102.981 155,107.5C 154.667,104.167 154.333,100.833 154,97.5C 153.667,101.167 153.333,104.833 153,108.5C 152.667,101.5 152.333,94.5 152,87.5C 150.539,86.1175 149.706,86.4508 149.5,88.5C 148.77,89.7124 147.77,90.7124 146.5,91.5C 146.624,92.1067 146.957,92.44 147.5,92.5C 147.666,96.8461 147.499,101.179 147,105.5C 146.259,106.641 145.425,106.641 144.5,105.5C 143.396,107.389 142.063,109.055 140.5,110.5C 139.702,110.043 139.369,109.376 139.5,108.5C 140.573,102.885 140.74,97.2179 140,91.5C 137.889,87.0561 134.889,86.3895 131,89.5C 130.174,83.4826 132.341,78.8159 137.5,75.5C 138.251,76.376 138.751,77.376 139,78.5C 139.813,76.5643 140.313,74.5643 140.5,72.5C 142.262,72.3573 143.929,72.6906 145.5,73.5C 147.401,72.065 147.734,70.3983 146.5,68.5C 146.833,67.5 147.5,66.8333 148.5,66.5C 149.167,68.5 149.833,70.5 150.5,72.5C 151.286,68.1805 151.953,63.8472 152.5,59.5C 152.833,57.8333 153.833,56.8333 155.5,56.5C 156.214,61.5177 156.881,66.5177 157.5,71.5C 159.656,73.9383 161.989,74.105 164.5,72C 166.047,68.9024 166.714,65.5691 166.5,62C 166.97,57.7181 165.97,53.8848 163.5,50.5C 164.601,48.8983 166.101,47.8983 168,47.5C 170.137,48.0767 172.304,48.41 174.5,48.5C 174.5,49.5 174.5,50.5 174.5,51.5C 172.61,51.2965 171.11,51.9632 170,53.5C 169.21,59.5522 169.376,65.5522 170.5,71.5C 174.189,74.5363 177.022,73.8696 179,69.5C 179.383,63.6608 179.549,57.9942 179.5,52.5C 182.092,52.9362 184.425,53.9362 186.5,55.5C 187.495,61.1278 187.829,66.7945 187.5,72.5C 188.5,72.5 189.5,72.5 190.5,72.5C 189.903,66.0404 190.57,59.8737 192.5,54C 189.913,52.4749 189.08,50.3083 190,47.5C 191.299,44.583 193.133,42.083 195.5,40C 194.941,39.2753 194.608,38.4419 194.5,37.5C 195.866,35.6297 197.033,33.6297 198,31.5C 199.049,30.4829 200.216,30.3162 201.5,31C 200.594,32.6995 200.261,34.5328 200.5,36.5C 201.5,36.5 202.5,36.5 203.5,36.5C 202.536,31.3504 203.87,27.0171 207.5,23.5C 208.137,27.5715 208.971,31.5715 210,35.5C 212.333,36.8333 214.667,36.8333 217,35.5C 218.388,30.6278 218.888,25.6278 218.5,20.5C 221.545,20.3418 224.379,21.0085 227,22.5C 227.799,27.0868 227.632,31.5868 226.5,36C 227.448,36.4828 228.448,36.6495 229.5,36.5C 229.174,32.1161 229.508,27.7828 230.5,23.5C 231.72,24.7111 232.887,24.7111 234,23.5C 234.333,26.8333 234.667,30.1667 235,33.5C 236.666,36.3788 239.166,37.2121 242.5,36C 243.126,35.2496 243.626,34.4162 244,33.5C 244.175,29.789 244.675,26.1224 245.5,22.5C 247.598,23.4845 249.598,23.1511 251.5,21.5C 253.421,25.2888 253.921,29.2888 253,33.5C 251.56,35.0456 249.727,35.879 247.5,36C 248.428,36.3879 249.095,37.0546 249.5,38C 248.624,41.7518 246.957,45.0852 244.5,48C 246.917,49.6258 249.417,51.1258 252,52.5C 252.456,53.7441 251.956,54.5774 250.5,55C 251.448,55.4828 252.448,55.6495 253.5,55.5C 254.167,78.1667 254.833,78.1667 255.5,55.5C 257.167,55.5 258.833,55.5 260.5,55.5C 260.334,60.1785 260.501,64.8452 261,69.5C 261.69,71.3502 262.856,72.6836 264.5,73.5 Z M 201.5,51.5 C 203.461,58.0869 204.128,65.0869 203.5,72.5C 202.5,72.5 201.5,72.5 200.5,72.5C 201.092,66.3691 200.425,60.5358 198.5,55C 200.063,54.2411 201.063,53.0744 201.5,51.5 Z M 214.5,51.5 C 215.821,54.5982 216.488,58.0982 216.5,62C 216.167,65.5 215.833,69 215.5,72.5C 214.505,66.8722 214.171,61.2055 214.5,55.5C 213.448,55.6495 212.448,55.4828 211.5,55C 213.063,54.2411 214.063,53.0744 214.5,51.5 Z M 227.5,51.5 C 228.821,54.5982 229.488,58.0982 229.5,62C 229.167,65.5 228.833,69 228.5,72.5C 227.505,66.8722 227.171,61.2055 227.5,55.5C 226.448,55.6495 225.448,55.4828 224.5,55C 226.063,54.2411 227.063,53.0744 227.5,51.5 Z M 236.5,51.5 C 239.365,51.0548 241.865,51.7215 244,53.5C 244.667,59.1667 244.667,64.8333 244,70.5C 240.527,74.7173 237.527,74.384 235,69.5C 233.979,63.2899 234.479,57.2899 236.5,51.5 Z M 166.5,92.5 C 166.666,97.1785 166.499,101.845 166,106.5C 163.472,110.085 160.472,110.418 157,107.5C 156.501,103.179 156.334,98.8461 156.5,94.5C 156.357,92.7376 156.691,91.0709 157.5,89.5C 161.824,86.3334 164.824,87.3334 166.5,92.5 Z M 185.5,87.5 C 188.325,87.0807 190.491,88.0807 192,90.5C 192.667,95.8333 192.667,101.167 192,106.5C 189.472,110.085 186.472,110.418 183,107.5C 182.333,101.833 182.333,96.1667 183,90.5C 183.698,89.3094 184.531,88.3094 185.5,87.5 Z M 198.5,87.5 C 201.368,87.085 203.535,88.085 205,90.5C 205.667,95.8333 205.667,101.167 205,106.5C 203.334,109.379 200.834,110.212 197.5,109C 196.874,108.25 196.374,107.416 196,106.5C 195.333,101.167 195.333,95.8333 196,90.5C 196.698,89.3094 197.531,88.3094 198.5,87.5 Z M 267.5,87.5 C 268.469,88.3094 269.302,89.3094 270,90.5C 270.667,96.1667 270.667,101.833 270,107.5C 269.283,108.044 268.783,108.711 268.5,109.5C 266.208,109.756 264.041,109.423 262,108.5C 260,102.167 260,95.8333 262,89.5C 263.444,87.8446 265.278,87.178 267.5,87.5 Z M 296.5,103.5 C 296.217,109.263 293.384,110.93 288,108.5C 286.596,102.956 286.096,97.2896 286.5,91.5C 288.674,87.2068 291.674,86.5401 295.5,89.5C 296.443,94.1001 296.777,98.7668 296.5,103.5 Z M 307.5,109.5 C 306.508,109.672 305.842,109.338 305.5,108.5C 305.5,103.167 305.5,97.8333 305.5,92.5C 304.325,92.719 303.325,92.3857 302.5,91.5C 304.149,90.3523 305.649,89.019 307,87.5C 307.5,94.8258 307.666,102.159 307.5,109.5 Z M 322.5,106.5 C 322.047,107.458 321.381,108.292 320.5,109C 315.899,110.651 313.232,109.151 312.5,104.5C 312.175,99.4012 312.675,94.4012 314,89.5C 317.096,86.6468 319.763,86.9801 322,90.5C 322.499,95.8229 322.666,101.156 322.5,106.5 Z M 334.5,88.5 C 335.584,94.783 335.751,101.116 335,107.5C 334.5,108 334,108.5 333.5,109C 328.801,110.713 326.468,109.213 326.5,104.5C 326.334,99.4889 326.501,94.4889 327,89.5C 329.288,87.3438 331.788,87.0104 334.5,88.5 Z M 345.5,87.5 C 346.819,94.6769 346.819,102.01 345.5,109.5C 344.505,103.872 344.171,98.2055 344.5,92.5C 343.325,92.719 342.325,92.3857 341.5,91.5C 343.421,90.6761 344.754,89.3428 345.5,87.5 Z M 149.5,88.5 C 151.461,95.0869 152.128,102.087 151.5,109.5C 150.5,109.5 149.5,109.5 148.5,109.5C 148.822,103.642 148.489,97.9753 147.5,92.5C 146.957,92.44 146.624,92.1067 146.5,91.5C 147.77,90.7124 148.77,89.7124 149.5,88.5 Z M 175.5,88.5 C 177.461,95.0869 178.128,102.087 177.5,109.5C 176.5,109.5 175.5,109.5 174.5,109.5C 175.061,103.276 174.395,97.2761 172.5,91.5C 173.77,90.7124 174.77,89.7124 175.5,88.5 Z M 214.5,88.5 C 216.461,95.0869 217.128,102.087 216.5,109.5C 215.448,109.649 214.448,109.483 213.5,109C 214.473,103.593 214.807,98.0934 214.5,92.5C 213.325,92.719 212.325,92.3857 211.5,91.5C 212.77,90.7124 213.77,89.7124 214.5,88.5 Z M 227.5,88.5 C 228.821,91.5982 229.488,95.0982 229.5,99C 229.167,102.5 228.833,106 228.5,109.5C 227.505,103.872 227.171,98.2055 227.5,92.5C 226.325,92.719 225.325,92.3857 224.5,91.5C 225.77,90.7124 226.77,89.7124 227.5,88.5 Z M 240.5,88.5 C 241.821,91.5982 242.488,95.0982 242.5,99C 242.167,102.5 241.833,106 241.5,109.5C 240.505,103.872 240.171,98.2055 240.5,92.5C 239.325,92.719 238.325,92.3857 237.5,91.5C 238.77,90.7124 239.77,89.7124 240.5,88.5 Z M 253.5,88.5 C 254.821,91.5982 255.488,95.0982 255.5,99C 255.167,102.5 254.833,106 254.5,109.5C 253.505,103.872 253.171,98.2055 253.5,92.5C 252.325,92.719 251.325,92.3857 250.5,91.5C 251.77,90.7124 252.77,89.7124 253.5,88.5 Z M 281.5,108.5 C 281.44,109.043 281.107,109.376 280.5,109.5C 280.137,103.441 279.137,97.7742 277.5,92.5C 276.957,92.44 276.624,92.1067 276.5,91.5C 277.833,90.5 279.167,89.5 280.5,88.5C 281.497,95.1335 281.83,101.8 281.5,108.5 Z M 192.5,137.5 C 193.667,144.163 191.001,146.997 184.5,146C 183.934,145.005 183.267,144.172 182.5,143.5C 182.334,138.156 182.501,132.823 183,127.5C 184.94,124.392 187.606,123.725 191,125.5C 192.354,129.363 192.854,133.363 192.5,137.5 Z M 199.5,128.5 C 199.167,128.5 198.833,128.5 198.5,128.5C 200.118,127.549 201.451,126.216 202.5,124.5C 203.497,131.803 203.831,139.137 203.5,146.5C 202.5,146.5 201.5,146.5 200.5,146.5C 200.823,140.31 200.49,134.31 199.5,128.5 Z M 210.5,124.5 C 212.527,124.338 214.527,124.505 216.5,125C 217.126,125.75 217.626,126.584 218,127.5C 218.667,132.833 218.667,138.167 218,143.5C 215,147.5 212,147.5 209,143.5C 207.97,136.959 208.47,130.626 210.5,124.5 Z M 223.5,124.5 C 225.527,124.338 227.527,124.505 229.5,125C 230.126,125.75 230.626,126.584 231,127.5C 231.667,132.833 231.667,138.167 231,143.5C 229.695,146.306 227.528,147.14 224.5,146C 223.333,145.5 222.5,144.667 222,143.5C 220.97,136.959 221.47,130.626 223.5,124.5 Z M 240.5,124.5 C 241.822,127.768 242.489,131.435 242.5,135.5C 242.167,139.167 241.833,142.833 241.5,146.5C 240.504,140.537 240.171,134.537 240.5,128.5C 239.448,128.649 238.448,128.483 237.5,128C 239.426,127.578 240.426,126.411 240.5,124.5 Z M 253.5,124.5 C 254.822,127.768 255.489,131.435 255.5,135.5C 255.167,139.167 254.833,142.833 254.5,146.5C 253.504,140.537 253.171,134.537 253.5,128.5C 252.448,128.649 251.448,128.483 250.5,128C 252.426,127.578 253.426,126.411 253.5,124.5 Z M 266.5,124.5 C 267.822,127.768 268.489,131.435 268.5,135.5C 268.167,139.167 267.833,142.833 267.5,146.5C 266.504,140.537 266.171,134.537 266.5,128.5C 265.448,128.649 264.448,128.483 263.5,128C 265.426,127.578 266.426,126.411 266.5,124.5 Z M 279.5,124.5 C 280.822,127.768 281.489,131.435 281.5,135.5C 281.167,139.167 280.833,142.833 280.5,146.5C 279.504,140.537 279.171,134.537 279.5,128.5C 278.448,128.649 277.448,128.483 276.5,128C 278.426,127.578 279.426,126.411 279.5,124.5 Z M 289.5,124.5 C 292.044,124.104 294.211,124.771 296,126.5C 296.667,132.5 296.667,138.5 296,144.5C 292.134,147.527 289.134,146.861 287,142.5C 286.333,137.833 286.333,133.167 287,128.5C 287.48,126.867 288.313,125.534 289.5,124.5 Z M 305.5,124.5 C 306.822,127.768 307.489,131.435 307.5,135.5C 307.167,139.167 306.833,142.833 306.5,146.5C 305.504,140.537 305.171,134.537 305.5,128.5C 304.448,128.649 303.448,128.483 302.5,128C 304.426,127.578 305.426,126.411 305.5,124.5 Z M 322.5,128.5 C 322.666,133.844 322.499,139.177 322,144.5C 319.791,146.706 317.291,147.04 314.5,145.5C 313.702,145.043 313.369,144.376 313.5,143.5C 311.954,137.39 312.287,131.39 314.5,125.5C 318.449,123.539 321.116,124.539 322.5,128.5 Z M 210.5,161.5 C 212.527,161.338 214.527,161.505 216.5,162C 217.126,162.75 217.626,163.584 218,164.5C 218.667,169.833 218.667,175.167 218,180.5C 215,184.5 212,184.5 209,180.5C 207.97,173.959 208.47,167.626 210.5,161.5 Z M 229.5,182.5 C 227.854,177.073 226.854,171.406 226.5,165.5C 225.761,165.631 225.094,165.464 224.5,165C 225.981,164.02 227.315,162.853 228.5,161.5C 229.497,168.468 229.83,175.468 229.5,182.5 Z M 244.5,163.5 C 244.666,169.176 244.499,174.843 244,180.5C 241.435,183.888 238.602,184.221 235.5,181.5C 234.925,178.384 234.591,175.217 234.5,172C 232.908,162.498 236.241,159.665 244.5,163.5 Z M 255.5,161.5 C 255.783,162.289 256.283,162.956 257,163.5C 257.667,169.167 257.667,174.833 257,180.5C 253.567,184.628 250.567,184.295 248,179.5C 247.219,174.083 247.385,168.75 248.5,163.5C 248.611,162.883 248.944,162.383 249.5,162C 251.473,161.505 253.473,161.338 255.5,161.5 Z M 294.5,165.5 C 294.829,171.206 294.495,176.872 293.5,182.5C 292.505,177.208 292.172,171.875 292.5,166.5C 291.737,165.732 290.737,165.232 289.5,165C 290.981,164.02 292.315,162.853 293.5,161.5C 294.429,162.689 294.762,164.022 294.5,165.5 Z M 281.5,181.5 C 281.44,182.043 281.107,182.376 280.5,182.5C 279.505,177.208 279.172,171.875 279.5,166.5C 278.737,165.732 277.737,165.232 276.5,165C 277.981,164.02 279.315,162.853 280.5,161.5C 281.497,168.134 281.83,174.8 281.5,181.5 Z M 268.5,165.5 C 267.833,188.167 267.167,188.167 266.5,165.5C 265.448,165.649 264.448,165.483 263.5,165C 264.571,164.148 265.571,163.315 266.5,162.5C 266.56,161.957 266.893,161.624 267.5,161.5C 268.429,162.689 268.762,164.022 268.5,165.5 Z"/></g>
<g><path style="opacity:0.957" fill="#fdd522" d="M 240.5,23.5 C 241.777,24.6936 242.444,26.3603 242.5,28.5C 243.593,33.3989 241.927,35.0656 237.5,33.5C 236.425,30.562 236.259,27.562 237,24.5C 238.579,25.7996 239.745,25.4663 240.5,23.5 Z"/></g>
<g><path style="opacity:0.988" fill="#fdd521" d="M 348.5,82.5 C 347.127,82.3433 345.793,82.51 344.5,83C 346.078,84.1405 347.744,84.6405 349.5,84.5C 349.192,85.3081 348.692,85.9747 348,86.5C 347.832,96.8494 347.332,107.183 346.5,117.5C 345.691,114.372 344.191,111.706 342,109.5C 340.667,108.833 339.333,108.167 338,107.5C 337.153,104.51 338.32,103.176 341.5,103.5C 341.238,104.978 341.571,106.311 342.5,107.5C 342.833,106.667 343.167,105.833 343.5,105C 342.038,98.8517 340.538,92.685 339,86.5C 336.499,84.9442 334.999,85.6108 334.5,88.5C 331.788,87.0104 329.288,87.3438 327,89.5C 326.501,94.4889 326.334,99.4889 326.5,104.5C 324.725,100.614 323.892,96.2803 324,91.5C 323.826,96.6835 323.326,101.684 322.5,106.5C 322.666,101.156 322.499,95.8229 322,90.5C 319.763,86.9801 317.096,86.6468 314,89.5C 312.675,94.4012 312.175,99.4012 312.5,104.5C 311.223,103.306 310.556,101.64 310.5,99.5C 310.082,95.1573 309.582,90.824 309,86.5C 308.829,94.3443 308.329,102.011 307.5,109.5C 307.666,102.159 307.5,94.8258 307,87.5C 305.649,89.019 304.149,90.3523 302.5,91.5C 303.325,92.3857 304.325,92.719 305.5,92.5C 305.5,97.8333 305.5,103.167 305.5,108.5C 304.834,103.651 304.167,98.6511 303.5,93.5C 301.907,97.2985 301.074,101.299 301,105.5C 300.118,102.211 299.452,98.8772 299,95.5C 298.667,97.8333 298.333,100.167 298,102.5C 297.617,103.056 297.117,103.389 296.5,103.5C 296.777,98.7668 296.443,94.1001 295.5,89.5C 291.674,86.5401 288.674,87.2068 286.5,91.5C 286.657,90.1266 286.49,88.7932 286,87.5C 285.29,88.9733 284.124,89.6399 282.5,89.5C 282.823,96.0221 282.49,102.355 281.5,108.5C 281.83,101.8 281.497,95.1335 280.5,88.5C 279.167,89.5 277.833,90.5 276.5,91.5C 276.624,92.1067 276.957,92.44 277.5,92.5C 276.541,100.889 276.208,109.222 276.5,117.5C 275.833,116.833 275.167,116.167 274.5,115.5C 273.833,111.833 273.167,108.167 272.5,104.5C 271.719,105.729 271.219,107.062 271,108.5C 270.329,109.252 269.496,109.586 268.5,109.5C 268.783,108.711 269.283,108.044 270,107.5C 270.667,101.833 270.667,96.1667 270,90.5C 269.302,89.3094 268.469,88.3094 267.5,87.5C 268.663,84.2936 267.33,82.6269 263.5,82.5C 263.657,81.1266 263.49,79.7932 263,78.5C 259.167,75.507 259.667,73.8404 264.5,73.5C 266.484,73.6168 268.15,72.9501 269.5,71.5C 270.417,68.2423 270.751,64.909 270.5,61.5C 277.632,61.6342 280.965,65.3008 280.5,72.5C 281.167,70.8333 281.833,69.1667 282.5,67.5C 285.833,69.3521 289,71.3521 292,73.5C 293.395,73.2196 294.562,72.5529 295.5,71.5C 296.817,65.3031 296.817,59.1364 295.5,53C 296.316,51.077 296.983,49.077 297.5,47C 296.741,43.3556 296.074,39.6889 295.5,36C 296.536,33.5925 296.536,31.2591 295.5,29C 296.167,28.3333 296.833,27.6667 297.5,27C 296.572,26.6121 295.905,25.9454 295.5,25C 297.921,19.726 299.921,14.3926 301.5,9C 308.958,10.7745 309.292,13.7745 302.5,18C 303.448,18.4828 304.448,18.6495 305.5,18.5C 306.167,42.5 306.833,42.5 307.5,18.5C 308.833,18.5 310.167,18.5 311.5,18.5C 311.67,19.8221 311.337,20.9887 310.5,22C 312.09,26.317 313.424,30.817 314.5,35.5C 315.99,37.1256 317.49,38.7923 319,40.5C 320.441,39.13 322.108,38.13 324,37.5C 325.771,41.1027 328.604,43.4361 332.5,44.5C 331.964,47.1052 331.798,49.7718 332,52.5C 328.106,54.0851 327.939,55.0851 331.5,55.5C 331.171,61.2055 331.505,66.8722 332.5,72.5C 333.167,68.1667 333.833,63.8333 334.5,59.5C 335.736,60.2458 337.07,60.5792 338.5,60.5C 338.423,67.6599 340.09,74.3266 343.5,80.5C 345.336,81.0276 347.003,81.6942 348.5,82.5 Z M 301.5,51.5 C 304.365,51.0548 306.865,51.7215 309,53.5C 309.667,59.1667 309.667,64.8333 309,70.5C 305.64,74.5048 302.64,74.1715 300,69.5C 299.036,63.3185 299.536,57.3185 301.5,51.5 Z M 318.5,51.5 C 319.821,54.5982 320.488,58.0982 320.5,62C 320.167,65.5 319.833,69 319.5,72.5C 318.505,66.8722 318.171,61.2055 318.5,55.5C 317.448,55.6495 316.448,55.4828 315.5,55C 317.063,54.2411 318.063,53.0744 318.5,51.5 Z M 296.5,103.5 C 296.217,109.263 293.384,110.93 288,108.5C 286.596,102.956 286.096,97.2896 286.5,91.5C 288.674,87.2068 291.674,86.5401 295.5,89.5C 296.443,94.1001 296.777,98.7668 296.5,103.5 Z M 307.5,109.5 C 306.508,109.672 305.842,109.338 305.5,108.5C 305.5,103.167 305.5,97.8333 305.5,92.5C 304.325,92.719 303.325,92.3857 302.5,91.5C 304.149,90.3523 305.649,89.019 307,87.5C 307.5,94.8258 307.666,102.159 307.5,109.5 Z M 322.5,106.5 C 322.047,107.458 321.381,108.292 320.5,109C 315.899,110.651 313.232,109.151 312.5,104.5C 312.175,99.4012 312.675,94.4012 314,89.5C 317.096,86.6468 319.763,86.9801 322,90.5C 322.499,95.8229 322.666,101.156 322.5,106.5 Z M 334.5,88.5 C 335.584,94.783 335.751,101.116 335,107.5C 334.5,108 334,108.5 333.5,109C 328.801,110.713 326.468,109.213 326.5,104.5C 326.334,99.4889 326.501,94.4889 327,89.5C 329.288,87.3438 331.788,87.0104 334.5,88.5 Z M 345.5,87.5 C 344.754,89.3428 343.421,90.6761 341.5,91.5C 342.325,92.3857 343.325,92.719 344.5,92.5C 344.171,98.2055 344.505,103.872 345.5,109.5C 346.819,102.01 346.819,94.6769 345.5,87.5 Z M 281.5,108.5 C 281.44,109.043 281.107,109.376 280.5,109.5C 280.137,103.441 279.137,97.7742 277.5,92.5C 276.957,92.44 276.624,92.1067 276.5,91.5C 277.833,90.5 279.167,89.5 280.5,88.5C 281.497,95.1335 281.83,101.8 281.5,108.5 Z"/></g>
<g><path style="opacity:0.008" fill="#fdbe24" d="M 160.5,49.5 C 162.337,49.6395 162.67,50.3061 161.5,51.5C 160.702,51.0431 160.369,50.3764 160.5,49.5 Z"/></g>
<g><path style="opacity:1" fill="#f8db1f" d="M 262.5,57.5 C 264.679,57.84 266.512,58.84 268,60.5C 268.667,63.8333 268.667,67.1667 268,70.5C 266.667,71.8333 265.333,71.8333 264,70.5C 263.708,66.118 263.208,61.7847 262.5,57.5 Z"/></g>
<g><path style="opacity:1" fill="#fdd61d" d="M 302.5,53.5 C 304.144,53.2865 305.644,53.6198 307,54.5C 307.667,59.8333 307.667,65.1667 307,70.5C 305.667,71.8333 304.333,71.8333 303,70.5C 302.501,64.8431 302.334,59.1764 302.5,53.5 Z"/></g>
<g><path style="opacity:1" fill="#fcd621" d="M 159.5,53.5 C 160.833,53.5 162.167,53.5 163.5,53.5C 163.666,59.1764 163.499,64.8431 163,70.5C 161.286,71.9255 159.953,71.5922 159,69.5C 158.219,64.0833 158.385,58.7499 159.5,53.5 Z"/></g>
<g><path style="opacity:0.956" fill="#fcd522" d="M 237.5,53.5 C 239.144,53.2865 240.644,53.6198 242,54.5C 242.667,59.5 242.667,64.5 242,69.5C 240.333,72.1667 238.667,72.1667 237,69.5C 236.219,64.0833 236.385,58.7499 237.5,53.5 Z"/></g>
<g><path style="opacity:1" fill="#fdd422" d="M 172.5,53.5 C 173.833,53.5 175.167,53.5 176.5,53.5C 176.666,59.1764 176.499,64.8431 176,70.5C 174.413,71.727 173.079,71.3937 172,69.5C 171.219,64.0833 171.385,58.7499 172.5,53.5 Z"/></g>
<g><path style="opacity:0.922" fill="#fbd427" d="M 292.5,64.5 C 293.693,64.9704 294.36,65.9704 294.5,67.5C 294.78,69.6228 293.947,70.9561 292,71.5C 290.72,71.3865 289.887,70.7199 289.5,69.5C 290.952,68.0603 291.952,66.3936 292.5,64.5 Z"/></g>
<g><path style="opacity:0.842" fill="#fdd721" d="M 264.5,89.5 C 265.583,89.5394 266.583,89.8728 267.5,90.5C 268.663,95.8023 268.829,101.136 268,106.5C 266.644,107.38 265.144,107.714 263.5,107.5C 263.211,101.409 263.545,95.4093 264.5,89.5 Z"/></g>
<g><path style="opacity:0.885" fill="#fcd721" d="M 316.5,89.5 C 317.822,89.33 318.989,89.6634 320,90.5C 320.667,95.8333 320.667,101.167 320,106.5C 318.644,107.38 317.144,107.714 315.5,107.5C 315.211,101.409 315.545,95.4093 316.5,89.5 Z"/></g>
<g><path style="opacity:0.969" fill="#fcd620" d="M 329.5,89.5 C 330.822,89.33 331.989,89.6634 333,90.5C 333.667,95.8333 333.667,101.167 333,106.5C 331.644,107.38 330.144,107.714 328.5,107.5C 328.211,101.409 328.545,95.4093 329.5,89.5 Z"/></g>
<g><path style="opacity:1" fill="#fdd822" d="M 186.5,89.5 C 187.496,89.4142 188.329,89.7476 189,90.5C 189.499,96.1569 189.666,101.824 189.5,107.5C 187.856,107.714 186.356,107.38 185,106.5C 184.333,101.5 184.333,96.5 185,91.5C 185.717,90.9558 186.217,90.2891 186.5,89.5 Z"/></g>
<g><path style="opacity:1" fill="#fcd41d" d="M 199.5,89.5 C 201.017,89.5106 202.184,90.1772 203,91.5C 203.667,96.1667 203.667,100.833 203,105.5C 201.688,107.658 200.022,107.991 198,106.5C 197.333,101.5 197.333,96.5 198,91.5C 198.717,90.9558 199.217,90.2891 199.5,89.5 Z"/></g>
<g><path style="opacity:0.137" fill="#f9d925" d="M 290.5,89.5 C 291.822,89.33 292.989,89.6634 294,90.5C 294.667,95.8333 294.667,101.167 294,106.5C 292.644,107.38 291.144,107.714 289.5,107.5C 289.211,101.409 289.545,95.4093 290.5,89.5 Z"/></g>
<g><path style="opacity:1" fill="#fcd624" d="M 133.5,89.5 C 134.822,89.33 135.989,89.6634 137,90.5C 137.499,96.1569 137.666,101.824 137.5,107.5C 135.856,107.714 134.356,107.38 133,106.5C 132.26,100.782 132.427,95.1154 133.5,89.5 Z"/></g>
<g><path style="opacity:0.977" fill="#fdd522" d="M 160.5,89.5 C 161.496,89.4142 162.329,89.7476 163,90.5C 163.499,96.1569 163.666,101.824 163.5,107.5C 161.856,107.714 160.356,107.38 159,106.5C 158.333,101.5 158.333,96.5 159,91.5C 159.717,90.9558 160.217,90.2891 160.5,89.5 Z"/></g>
<g><path style="opacity:0.502" fill="#eedb2b" d="M 367.5,101.5 C 368.693,101.97 369.36,102.97 369.5,104.5C 369.167,105.5 368.833,106.5 368.5,107.5C 367.534,105.604 367.201,103.604 367.5,101.5 Z"/></g>
<g><path style="opacity:0.999" fill="#fdd620" d="M 156.5,94.5 C 156.334,98.8461 156.501,103.179 157,107.5C 160.472,110.418 163.472,110.085 166,106.5C 166.499,101.845 166.666,97.1785 166.5,92.5C 167.321,95.6414 167.821,98.9748 168,102.5C 168.543,100.369 169.376,98.3686 170.5,96.5C 171.167,103.833 171.833,111.167 172.5,118.5C 173.736,117.754 175.07,117.421 176.5,117.5C 176.67,118.822 176.337,119.989 175.5,121C 176.973,121.71 177.64,122.876 177.5,124.5C 175.946,125.693 174.279,126.86 172.5,128C 174.43,133.874 175.097,140.04 174.5,146.5C 175.5,146.5 176.5,146.5 177.5,146.5C 177.5,146.833 177.5,147.167 177.5,147.5C 174.446,149.871 171.113,151.871 167.5,153.5C 166.17,151.653 166.503,150.153 168.5,149C 167.833,148.333 167.167,147.667 166.5,147C 168.881,143.233 169.714,139.067 169,134.5C 167.981,136.502 167.148,138.502 166.5,140.5C 166.888,135.372 166.388,130.372 165,125.5C 161.606,123.725 158.94,124.392 157,127.5C 156.254,133.551 156.421,139.551 157.5,145.5C 155.784,145.371 154.117,145.038 152.5,144.5C 153.808,138.679 153.808,132.845 152.5,127C 149.21,123.565 146.21,123.732 143.5,127.5C 141.972,128.802 140.972,130.469 140.5,132.5C 140.551,124.952 137.384,122.952 131,126.5C 130.333,132.167 130.333,137.833 131,143.5C 131.377,144.942 132.21,145.942 133.5,146.5C 133.703,148.39 133.037,149.89 131.5,151C 132,151.5 132.5,152 133,152.5C 134.456,151.08 135.956,149.747 137.5,148.5C 138.689,147.571 140.022,147.238 141.5,147.5C 141.657,148.873 141.49,150.207 141,151.5C 137.301,153.885 133.801,156.552 130.5,159.5C 129.295,160.995 129.295,162.328 130.5,163.5C 130.334,169.176 130.501,174.843 131,180.5C 133.513,183.848 136.347,184.182 139.5,181.5C 141.199,181.473 142.533,180.806 143.5,179.5C 144.11,180.391 144.443,181.391 144.5,182.5C 143.711,182.783 143.044,183.283 142.5,184C 143.264,186.069 143.764,188.236 144,190.5C 147.258,191.554 148.092,193.554 146.5,196.5C 143.369,195.362 140.369,195.696 137.5,197.5C 136.167,197.5 134.833,197.5 133.5,197.5C 138.141,197.174 139.475,194.84 137.5,190.5C 136.885,188.884 135.885,187.551 134.5,186.5C 133.692,186.808 133.025,187.308 132.5,188C 133.773,190.193 134.106,192.36 133.5,194.5C 132.369,195.604 131.535,195.271 131,193.5C 129.951,194.517 128.784,194.684 127.5,194C 129.432,192.648 130.766,190.815 131.5,188.5C 130.174,185.513 128.174,183.18 125.5,181.5C 125.5,174.833 125.5,168.167 125.5,161.5C 125.67,160.178 125.337,159.011 124.5,158C 126.676,156.323 128.676,154.489 130.5,152.5C 129.553,150.941 128.887,149.274 128.5,147.5C 129.595,140.531 129.761,133.531 129,126.5C 128.826,131.684 128.326,136.684 127.5,141.5C 127.726,136.438 127.392,131.438 126.5,126.5C 127.573,125.749 127.74,124.749 127,123.5C 122.785,120.715 118.785,121.048 115,124.5C 114.014,123.829 112.847,123.829 111.5,124.5C 108.956,124.104 106.789,124.771 105,126.5C 104.501,132.491 104.334,138.491 104.5,144.5C 105.038,146.117 105.371,147.784 105.5,149.5C 102.886,149.277 101.219,150.444 100.5,153C 101.406,154.699 101.739,156.533 101.5,158.5C 103.959,158.31 105.626,159.31 106.5,161.5C 104.181,168.283 103.847,175.283 105.5,182.5C 104.534,185.125 103.534,185.125 102.5,182.5C 101.914,182.709 101.414,183.043 101,183.5C 100.829,175.989 100.329,168.655 99.5,161.5C 98.391,161.557 97.391,161.89 96.5,162.5C 90.8739,160.2 88.5406,155.867 89.5,149.5C 87.0107,149.759 85.344,148.759 84.5,146.5C 86.61,145.547 87.7767,143.881 88,141.5C 88.4384,136.13 88.4384,130.797 88,125.5C 91.0746,123.229 94.5746,122.063 98.5,122C 102.239,118.997 105.906,115.997 109.5,113C 114.681,111.077 120.014,109.744 125.5,109C 126.635,104.343 128.135,99.843 130,95.5C 130.333,99.5 130.667,103.5 131,107.5C 133.585,109.735 136.418,110.069 139.5,108.5C 139.369,109.376 139.702,110.043 140.5,110.5C 142.063,109.055 143.396,107.389 144.5,105.5C 145.425,106.641 146.259,106.641 147,105.5C 147.499,101.179 147.666,96.8461 147.5,92.5C 148.489,97.9753 148.822,103.642 148.5,109.5C 149.5,109.5 150.5,109.5 151.5,109.5C 152.128,102.087 151.461,95.0869 149.5,88.5C 149.706,86.4508 150.539,86.1175 152,87.5C 152.333,94.5 152.667,101.5 153,108.5C 153.333,104.833 153.667,101.167 154,97.5C 154.333,100.833 154.667,104.167 155,107.5C 155.175,102.981 155.675,98.6472 156.5,94.5 Z M 97.5,124.5 C 99.4633,131.424 100.13,138.757 99.5,146.5C 98.5,146.5 97.5,146.5 96.5,146.5C 96.5,140.5 96.5,134.5 96.5,128.5C 95.448,128.649 94.448,128.483 93.5,128C 95.5444,127.502 96.8777,126.335 97.5,124.5 Z M 111.5,124.5 C 112.687,125.534 113.52,126.867 114,128.5C 114.759,133.707 114.592,138.874 113.5,144C 110.683,147.128 107.683,147.295 104.5,144.5C 104.334,138.491 104.501,132.491 105,126.5C 106.789,124.771 108.956,124.104 111.5,124.5 Z M 140.5,132.5 C 140.728,136.39 140.394,140.224 139.5,144C 138.056,146.034 136.056,146.868 133.5,146.5C 132.21,145.942 131.377,144.942 131,143.5C 130.333,137.833 130.333,132.167 131,126.5C 137.384,122.952 140.551,124.952 140.5,132.5 Z M 152.5,144.5 C 150.285,146.574 147.785,146.907 145,145.5C 143.59,139.621 143.09,133.621 143.5,127.5C 146.21,123.732 149.21,123.565 152.5,127C 153.808,132.845 153.808,138.679 152.5,144.5 Z M 166.5,140.5 C 165.683,146.076 162.683,147.742 157.5,145.5C 156.421,139.551 156.254,133.551 157,127.5C 158.94,124.392 161.606,123.725 165,125.5C 166.388,130.372 166.888,135.372 166.5,140.5 Z M 125.5,161.5 C 125.5,168.167 125.5,174.833 125.5,181.5C 124.791,182.404 123.791,182.737 122.5,182.5C 122.5,176.833 122.5,171.167 122.5,165.5C 121.448,165.649 120.448,165.483 119.5,165C 121.405,163.579 123.405,162.412 125.5,161.5 Z M 106.5,161.5 C 108.792,161.244 110.959,161.577 113,162.5C 114.956,168.859 114.956,175.193 113,181.5C 110.712,183.656 108.212,183.99 105.5,182.5C 103.847,175.283 104.181,168.283 106.5,161.5 Z M 126.5,126.5 C 127.392,131.438 127.726,136.438 127.5,141.5C 125.672,146.7 122.506,147.7 118,144.5C 117.333,138.5 117.333,132.5 118,126.5C 120.874,123.914 123.707,123.914 126.5,126.5 Z"/></g>
<g><path style="opacity:0.997" fill="#fcd620" d="M 393.5,165.5 C 391.964,163.975 390.964,161.975 390.5,159.5C 390.167,160.167 389.833,160.833 389.5,161.5C 388.905,168.318 388.239,174.985 387.5,181.5C 387.666,175.491 387.499,169.491 387,163.5C 384.879,161.543 382.379,161.043 379.5,162C 378.357,168.418 378.19,174.918 379,181.5C 381.003,183.458 383.169,183.791 385.5,182.5C 385.5,183.5 385.5,184.5 385.5,185.5C 379.672,183.411 374.006,183.411 368.5,185.5C 367.026,183.851 365.193,182.851 363,182.5C 361.003,183.66 359.169,183.66 357.5,182.5C 356.903,182.735 356.57,183.235 356.5,184C 357.721,186.058 358.721,188.224 359.5,190.5C 358.891,193.61 357.057,195.61 354,196.5C 353.517,197.448 353.351,198.448 353.5,199.5C 354.5,199.5 355.5,199.5 356.5,199.5C 355.833,200.167 355.167,200.833 354.5,201.5C 352.989,200.498 351.322,199.831 349.5,199.5C 349.215,204.897 349.549,210.23 350.5,215.5C 350.145,216.522 349.478,217.189 348.5,217.5C 348.5,211.5 348.5,205.5 348.5,199.5C 348.954,196.747 350.621,195.08 353.5,194.5C 352.653,193.155 351.487,192.155 350,191.5C 349.316,190.216 349.483,189.049 350.5,188C 349.552,187.517 348.552,187.351 347.5,187.5C 347.072,190.564 346.406,193.564 345.5,196.5C 343.335,196.884 341.668,196.217 340.5,194.5C 342.031,193.387 343.031,191.887 343.5,190C 343.245,188.674 342.578,187.674 341.5,187C 344.115,186.388 345.781,184.888 346.5,182.5C 347.222,182.082 347.722,181.416 348,180.5C 348.667,174.833 348.667,169.167 348,163.5C 345.582,161.32 342.916,160.987 340,162.5C 339.501,167.823 339.334,173.156 339.5,178.5C 338.009,175.814 337.343,172.814 337.5,169.5C 340.443,162.97 338.443,159.803 331.5,160C 332.416,160.278 333.082,160.778 333.5,161.5C 331.731,162.421 330.065,163.588 328.5,165C 329.094,165.464 329.761,165.631 330.5,165.5C 330.666,170.179 330.499,174.845 330,179.5C 329.333,178.167 328.667,176.833 328,175.5C 325.485,177.107 324.151,179.44 324,182.5C 323.329,181.748 322.496,181.414 321.5,181.5C 322.621,175.582 322.788,169.582 322,163.5C 319.847,161.556 317.347,161.056 314.5,162C 313.915,163.302 313.249,164.469 312.5,165.5C 310.78,167.658 309.947,170.325 310,173.5C 309.667,169.833 309.333,166.167 309,162.5C 308.828,169.013 308.328,175.347 307.5,181.5C 308.126,174.416 307.459,167.75 305.5,161.5C 307.352,160.482 309.019,159.149 310.5,157.5C 311.237,154.225 312.237,151.058 313.5,148C 312.167,147.667 310.833,147.333 309.5,147C 310.362,144.266 311.195,144.099 312,146.5C 312.232,145.263 312.732,144.263 313.5,143.5C 313.369,144.376 313.702,145.043 314.5,145.5C 317.291,147.04 319.791,146.706 322,144.5C 322.499,139.177 322.666,133.844 322.5,128.5C 323.166,133.349 323.833,138.349 324.5,143.5C 325.976,145.571 327.976,146.571 330.5,146.5C 330.5,140.5 330.5,134.5 330.5,128.5C 331.167,134.346 331.833,140.346 332.5,146.5C 333.497,139.532 333.83,132.532 333.5,125.5C 334.489,130.975 334.822,136.642 334.5,142.5C 335.5,142.5 336.5,142.5 337.5,142.5C 337.69,137.63 338.356,132.964 339.5,128.5C 339.334,133.844 339.501,139.177 340,144.5C 342.667,147.167 345.333,147.167 348,144.5C 348.499,138.509 348.666,132.509 348.5,126.5C 349.833,127.5 351.167,128.5 352.5,129.5C 352.334,134.511 352.501,139.511 353,144.5C 355.667,147.167 358.333,147.167 361,144.5C 361.667,138.5 361.667,132.5 361,126.5C 360.283,125.956 359.783,125.289 359.5,124.5C 361.12,123.159 362.12,121.326 362.5,119C 363.833,118.333 365.167,118.333 366.5,119C 367.253,120.487 368.086,120.654 369,119.5C 368.145,117.385 367.645,115.052 367.5,112.5C 371.151,112.254 374.651,112.254 378,112.5C 378.167,112.167 378.333,111.833 378.5,111.5C 377.398,110.824 376.398,110.158 375.5,109.5C 376.688,108.316 377.855,108.316 379,109.5C 380.153,112.711 380.82,116.044 381,119.5C 382.731,121.617 384.898,123.117 387.5,124C 389.041,125.579 390.208,127.413 391,129.5C 391.333,134.5 391.667,139.5 392,144.5C 393.789,146.229 395.956,146.896 398.5,146.5C 398.831,153.29 399.664,159.956 401,166.5C 400.692,167.308 400.192,167.975 399.5,168.5C 398.686,166.234 398.186,163.9 398,161.5C 396.333,162.733 394.833,164.067 393.5,165.5 Z M 371.5,124.5 C 372.819,131.677 372.819,139.01 371.5,146.5C 370.504,140.537 370.171,134.537 370.5,128.5C 369.448,128.649 368.448,128.483 367.5,128C 369.324,127.34 370.657,126.173 371.5,124.5 Z M 384.5,124.5 C 385.819,131.677 385.819,139.01 384.5,146.5C 383.504,140.537 383.171,134.537 383.5,128.5C 382.448,128.649 381.448,128.483 380.5,128C 382.324,127.34 383.657,126.173 384.5,124.5 Z M 366.5,161.5 C 369.394,161.042 371.894,161.709 374,163.5C 374.667,169.167 374.667,174.833 374,180.5C 371.763,184.02 369.096,184.353 366,181.5C 365.208,174.753 365.374,168.086 366.5,161.5 Z M 357.5,182.5 C 357.5,176.833 357.5,171.167 357.5,165.5C 356.448,165.649 355.448,165.483 354.5,165C 356.09,163.954 357.59,162.787 359,161.5C 359.167,165 359.333,168.5 359.5,172C 359.488,175.902 358.821,179.402 357.5,182.5 Z M 333.5,161.5 C 333.83,168.532 333.497,175.532 332.5,182.5C 331.833,176.681 331.167,171.014 330.5,165.5C 329.761,165.631 329.094,165.464 328.5,165C 330.065,163.588 331.731,162.421 333.5,161.5 Z"/></g>
<g><path style="opacity:1" fill="#fcd721" d="M 315.5,126.5 C 317.144,126.286 318.644,126.62 320,127.5C 320.667,132.833 320.667,138.167 320,143.5C 318.644,144.38 317.144,144.714 315.5,144.5C 315.5,138.5 315.5,132.5 315.5,126.5 Z"/></g>
<g><path style="opacity:1" fill="#fcd621" d="M 107.5,126.5 C 108.833,126.5 110.167,126.5 111.5,126.5C 111.5,132.5 111.5,138.5 111.5,144.5C 109.856,144.714 108.356,144.38 107,143.5C 106.215,137.751 106.382,132.084 107.5,126.5 Z"/></g>
<g><path style="opacity:0.91" fill="#fbd624" d="M 159.5,126.5 C 160.833,126.5 162.167,126.5 163.5,126.5C 163.5,132.5 163.5,138.5 163.5,144.5C 161.856,144.714 160.356,144.38 159,143.5C 158.215,137.751 158.382,132.084 159.5,126.5 Z"/></g>
<g><path style="opacity:0.792" fill="#fcd923" d="M 211.5,126.5 C 213.144,126.286 214.644,126.62 216,127.5C 216.667,132.833 216.667,138.167 216,143.5C 213.978,144.991 212.312,144.658 211,142.5C 210.267,137.115 210.433,131.782 211.5,126.5 Z"/></g>
<g><path style="opacity:1" fill="#fcd621" d="M 289.5,126.5 C 291.144,126.286 292.644,126.62 294,127.5C 294.667,132.833 294.667,138.167 294,143.5C 292.644,144.38 291.144,144.714 289.5,144.5C 289.5,138.5 289.5,132.5 289.5,126.5 Z"/></g>
<g><path style="opacity:1" fill="#fdd821" d="M 146.5,126.5 C 147.833,126.5 149.167,126.5 150.5,126.5C 150.5,132.5 150.5,138.5 150.5,144.5C 148.856,144.714 147.356,144.38 146,143.5C 145.215,137.751 145.382,132.084 146.5,126.5 Z"/></g>
<g><path style="opacity:0.812" fill="#fdd320" d="M 224.5,126.5 C 226.144,126.286 227.644,126.62 229,127.5C 229.667,132.833 229.667,138.167 229,143.5C 226.978,144.991 225.312,144.658 224,142.5C 223.267,137.115 223.433,131.782 224.5,126.5 Z"/></g>
<g><path style="opacity:1" fill="#fcd723" d="M 354.5,126.5 C 356.144,126.286 357.644,126.62 359,127.5C 359.667,132.833 359.667,138.167 359,143.5C 357.644,144.38 356.144,144.714 354.5,144.5C 354.5,138.5 354.5,132.5 354.5,126.5 Z"/></g>
<g><path style="opacity:0.935" fill="#fdd720" d="M 341.5,126.5 C 343.144,126.286 344.644,126.62 346,127.5C 346.667,132.833 346.667,138.167 346,143.5C 344.644,144.38 343.144,144.714 341.5,144.5C 341.5,138.5 341.5,132.5 341.5,126.5 Z"/></g>
<g><path style="opacity:0.978" fill="#fed424" d="M 393.5,133.5 C 396.892,134.916 398.559,137.583 398.5,141.5C 397.976,144.396 396.476,145.063 394,143.5C 393.502,140.183 393.335,136.85 393.5,133.5 Z"/></g>
<g><path style="opacity:1" fill="#fdd91d" d="M 185.5,126.5 C 186.833,126.5 188.167,126.5 189.5,126.5C 189.5,132.5 189.5,138.5 189.5,144.5C 187.549,144.773 186.049,144.107 185,142.5C 184.219,137.083 184.385,131.75 185.5,126.5 Z"/></g>
<g><path style="opacity:1" fill="#fbd520" d="M 84.5,128.5 C 85.3764,128.369 86.0431,128.702 86.5,129.5C 85.5524,134.435 85.219,139.435 85.5,144.5C 81.1064,144.946 79.4397,142.946 80.5,138.5C 80.4173,134.588 81.7506,131.255 84.5,128.5 Z"/></g>
<g><path style="opacity:0.947" fill="#fcd825" d="M 133.5,126.5 C 134.833,126.5 136.167,126.5 137.5,126.5C 137.5,132.5 137.5,138.5 137.5,144.5C 135.856,144.714 134.356,144.38 133,143.5C 132.215,137.751 132.382,132.084 133.5,126.5 Z"/></g>
<g><path style="opacity:0.963" fill="#fcd520" d="M 238.5,162.5 C 240.017,162.511 241.184,163.177 242,164.5C 242.667,169.5 242.667,174.5 242,179.5C 240.333,182.167 238.667,182.167 237,179.5C 236.333,174.5 236.333,169.5 237,164.5C 237.717,163.956 238.217,163.289 238.5,162.5 Z"/></g>
<g><path style="opacity:0.709" fill="#fdd722" d="M 212.5,162.5 C 214.017,162.511 215.184,163.177 216,164.5C 216.667,169.5 216.667,174.5 216,179.5C 214.333,182.167 212.667,182.167 211,179.5C 210.333,174.5 210.333,169.5 211,164.5C 211.717,163.956 212.217,163.289 212.5,162.5 Z"/></g>
<g><path style="opacity:0.987" fill="#fcda1d" d="M 251.5,162.5 C 253.017,162.511 254.184,163.177 255,164.5C 255.667,169.5 255.667,174.5 255,179.5C 252.81,182.249 251.143,181.915 250,178.5C 249.003,172.95 249.503,167.617 251.5,162.5 Z"/></g>
<g><path style="opacity:0.982" fill="#fdd620" d="M 266.5,162.5 C 265.571,163.315 264.571,164.148 263.5,165C 264.448,165.483 265.448,165.649 266.5,165.5C 267.167,188.167 267.833,188.167 268.5,165.5C 270.124,165.64 271.29,164.973 272,163.5C 272.71,164.973 273.876,165.64 275.5,165.5C 275.672,170.782 275.006,175.949 273.5,181C 273.833,182.167 274.167,183.333 274.5,184.5C 275.192,183.975 275.692,183.308 276,182.5C 276.333,178.167 276.667,173.833 277,169.5C 277.236,167.881 278.069,166.881 279.5,166.5C 279.172,171.875 279.505,177.208 280.5,182.5C 281.107,182.376 281.44,182.043 281.5,181.5C 282.222,181.918 282.722,182.584 283,183.5C 283.392,180.812 283.892,178.145 284.5,175.5C 282.927,171.784 283.26,168.284 285.5,165C 282.968,159.299 283.468,159.132 287,164.5C 287.333,164.167 287.667,163.833 288,163.5C 288.483,164.448 288.649,165.448 288.5,166.5C 289.833,166.5 291.167,166.5 292.5,166.5C 292.172,171.875 292.505,177.208 293.5,182.5C 294.495,176.872 294.829,171.206 294.5,165.5C 295.494,175.319 295.827,185.319 295.5,195.5C 297.924,195.808 300.257,195.474 302.5,194.5C 301.41,193.391 301.41,192.391 302.5,191.5C 304.773,192.375 305.773,194.042 305.5,196.5C 306.822,196.67 307.989,196.337 309,195.5C 309.346,193.782 309.846,192.115 310.5,190.5C 310.062,189.494 309.396,189.494 308.5,190.5C 307.548,188.955 307.215,187.288 307.5,185.5C 309.527,185.662 311.527,185.495 313.5,185C 314.252,184.329 314.586,183.496 314.5,182.5C 317.172,184.044 319.505,183.711 321.5,181.5C 322.496,181.414 323.329,181.748 324,182.5C 324.151,179.44 325.485,177.107 328,175.5C 328.667,176.833 329.333,178.167 330,179.5C 330.499,174.845 330.666,170.179 330.5,165.5C 331.167,171.014 331.833,176.681 332.5,182.5C 333.497,175.532 333.83,168.532 333.5,161.5C 333.082,160.778 332.416,160.278 331.5,160C 338.443,159.803 340.443,162.97 337.5,169.5C 337.343,172.814 338.009,175.814 339.5,178.5C 340.188,182.678 342.522,184.011 346.5,182.5C 345.781,184.888 344.115,186.388 341.5,187C 342.578,187.674 343.245,188.674 343.5,190C 343.031,191.887 342.031,193.387 340.5,194.5C 341.668,196.217 343.335,196.884 345.5,196.5C 346.406,193.564 347.072,190.564 347.5,187.5C 348.552,187.351 349.552,187.517 350.5,188C 349.483,189.049 349.316,190.216 350,191.5C 351.487,192.155 352.653,193.155 353.5,194.5C 350.621,195.08 348.954,196.747 348.5,199.5C 345.583,197.047 342.749,197.047 340,199.5C 339.19,206.082 339.357,212.582 340.5,219C 343.498,219.891 346.164,219.391 348.5,217.5C 349.478,217.189 350.145,216.522 350.5,215.5C 349.549,210.23 349.215,204.897 349.5,199.5C 351.322,199.831 352.989,200.498 354.5,201.5C 355.496,201.414 356.329,201.748 357,202.5C 357.17,208.196 357.67,213.862 358.5,219.5C 359.665,212.189 359.831,204.856 359,197.5C 358.292,198.381 357.458,199.047 356.5,199.5C 355.5,199.5 354.5,199.5 353.5,199.5C 353.351,198.448 353.517,197.448 354,196.5C 357.057,195.61 358.891,193.61 359.5,190.5C 358.721,188.224 357.721,186.058 356.5,184C 356.57,183.235 356.903,182.735 357.5,182.5C 359.169,183.66 361.003,183.66 363,182.5C 365.193,182.851 367.026,183.851 368.5,185.5C 374.006,183.411 379.672,183.411 385.5,185.5C 385.5,184.5 385.5,183.5 385.5,182.5C 386.167,182.167 386.833,181.833 387.5,181.5C 388.239,174.985 388.905,168.318 389.5,161.5C 389.833,160.833 390.167,160.167 390.5,159.5C 390.964,161.975 391.964,163.975 393.5,165.5C 394.5,165.5 395.5,165.5 396.5,165.5C 398.039,178.339 395.039,189.839 387.5,200C 387.167,200.167 386.833,200.333 386.5,200.5C 385.749,199.624 385.249,198.624 385,197.5C 384.021,199.32 382.521,200.487 380.5,201C 381.624,201.249 382.624,201.749 383.5,202.5C 381.198,207.098 378.531,211.431 375.5,215.5C 374.671,210.198 374.171,204.864 374,199.5C 371.253,196.966 368.587,196.966 366,199.5C 365.333,205.833 365.333,212.167 366,218.5C 369.039,219.966 371.872,219.633 374.5,217.5C 374.833,218 375.167,218.5 375.5,219C 374.392,221.112 372.892,222.946 371,224.5C 369.282,230.754 367.282,236.754 365,242.5C 363.301,243.406 361.467,243.739 359.5,243.5C 359.665,240.482 359.498,237.482 359,234.5C 357.786,236.049 356.286,237.215 354.5,238C 355.448,238.483 356.448,238.649 357.5,238.5C 357.785,240.288 357.452,241.955 356.5,243.5C 353.152,244.085 350.152,245.418 347.5,247.5C 346.672,243.204 346.172,238.871 346,234.5C 344.786,236.049 343.286,237.215 341.5,238C 342.448,238.483 343.448,238.649 344.5,238.5C 344.666,242.514 344.499,246.514 344,250.5C 342.649,252.019 341.149,253.352 339.5,254.5C 337.618,253.907 335.785,253.24 334,252.5C 333.667,246.5 333.333,240.5 333,234.5C 331.786,236.049 330.286,237.215 328.5,238C 329.448,238.483 330.448,238.649 331.5,238.5C 331.5,243.167 331.5,247.833 331.5,252.5C 327.833,252.5 324.167,252.5 320.5,252.5C 320.666,246.491 320.499,240.491 320,234.5C 318.786,236.049 317.286,237.215 315.5,238C 316.448,238.483 317.448,238.649 318.5,238.5C 318.5,242.833 318.5,247.167 318.5,251.5C 315.574,250.539 312.574,249.873 309.5,249.5C 309.666,245.154 309.499,240.821 309,236.5C 302.653,232.602 299.486,234.435 299.5,242C 299.559,243.436 299.892,244.769 300.5,246C 299.216,246.684 298.049,246.517 297,245.5C 296.667,242.5 296.333,239.5 296,236.5C 294.084,235.072 291.917,234.072 289.5,233.5C 286.354,227.581 282.021,226.415 276.5,230C 273.824,230.74 271.158,231.073 268.5,231C 266.141,224.641 261.808,220.307 255.5,218C 257.947,216.771 258.113,215.271 256,213.5C 255.667,208.167 255.333,202.833 255,197.5C 253.786,199.049 252.286,200.215 250.5,201C 253.548,202.73 254.214,205.23 252.5,208.5C 250.775,207.985 249.108,207.318 247.5,206.5C 246.059,203.233 244.059,200.4 241.5,198C 238.423,197.74 235.423,198.24 232.5,199.5C 230.259,198.308 227.926,197.308 225.5,196.5C 226.263,195.732 227.263,195.232 228.5,195C 227.91,193.491 227.244,191.991 226.5,190.5C 222.195,194.274 217.195,195.44 211.5,194C 213.203,191.432 215.369,190.932 218,192.5C 219.567,191.144 221.4,190.477 223.5,190.5C 223.002,187.319 223.835,184.653 226,182.5C 226.499,176.843 226.666,171.176 226.5,165.5C 226.854,171.406 227.854,177.073 229.5,182.5C 229.56,183.043 229.893,183.376 230.5,183.5C 231.14,178.938 232.306,178.604 234,182.5C 234.383,181.944 234.883,181.611 235.5,181.5C 238.602,184.221 241.435,183.888 244,180.5C 244.499,174.843 244.666,169.176 244.5,163.5C 245.833,163.5 247.167,163.5 248.5,163.5C 247.385,168.75 247.219,174.083 248,179.5C 250.567,184.295 253.567,184.628 257,180.5C 257.667,174.833 257.667,169.167 257,163.5C 256.283,162.956 255.783,162.289 255.5,161.5C 258.241,160.072 260.574,158.072 262.5,155.5C 263.111,158.427 264.444,160.76 266.5,162.5 Z M 387.5,181.5 C 386.833,181.833 386.167,182.167 385.5,182.5C 383.169,183.791 381.003,183.458 379,181.5C 378.19,174.918 378.357,168.418 379.5,162C 382.379,161.043 384.879,161.543 387,163.5C 387.499,169.491 387.666,175.491 387.5,181.5 Z M 366.5,161.5 C 365.374,168.086 365.208,174.753 366,181.5C 369.096,184.353 371.763,184.02 374,180.5C 374.667,174.833 374.667,169.167 374,163.5C 371.894,161.709 369.394,161.042 366.5,161.5 Z M 357.5,182.5 C 358.821,179.402 359.488,175.902 359.5,172C 359.333,168.5 359.167,165 359,161.5C 357.59,162.787 356.09,163.954 354.5,165C 355.448,165.483 356.448,165.649 357.5,165.5C 357.5,171.167 357.5,176.833 357.5,182.5 Z M 346.5,182.5 C 342.522,184.011 340.188,182.678 339.5,178.5C 339.334,173.156 339.501,167.823 340,162.5C 342.916,160.987 345.582,161.32 348,163.5C 348.667,169.167 348.667,174.833 348,180.5C 347.722,181.416 347.222,182.082 346.5,182.5 Z M 333.5,161.5 C 333.83,168.532 333.497,175.532 332.5,182.5C 331.833,176.681 331.167,171.014 330.5,165.5C 329.761,165.631 329.094,165.464 328.5,165C 330.065,163.588 331.731,162.421 333.5,161.5 Z M 321.5,181.5 C 319.505,183.711 317.172,184.044 314.5,182.5C 312.717,177.025 312.051,171.359 312.5,165.5C 313.249,164.469 313.915,163.302 314.5,162C 317.347,161.056 319.847,161.556 322,163.5C 322.788,169.582 322.621,175.582 321.5,181.5 Z M 305.5,161.5 C 307.459,167.75 308.126,174.416 307.5,181.5C 307.44,182.043 307.107,182.376 306.5,182.5C 305.505,176.872 305.171,171.206 305.5,165.5C 304.448,165.649 303.448,165.483 302.5,165C 304.063,164.241 305.063,163.074 305.5,161.5 Z M 294.5,165.5 C 294.829,171.206 294.495,176.872 293.5,182.5C 292.505,177.208 292.172,171.875 292.5,166.5C 291.737,165.732 290.737,165.232 289.5,165C 290.981,164.02 292.315,162.853 293.5,161.5C 294.429,162.689 294.762,164.022 294.5,165.5 Z M 281.5,181.5 C 281.44,182.043 281.107,182.376 280.5,182.5C 279.505,177.208 279.172,171.875 279.5,166.5C 278.737,165.732 277.737,165.232 276.5,165C 277.981,164.02 279.315,162.853 280.5,161.5C 281.497,168.134 281.83,174.8 281.5,181.5 Z M 268.5,165.5 C 267.833,188.167 267.167,188.167 266.5,165.5C 265.448,165.649 264.448,165.483 263.5,165C 264.571,164.148 265.571,163.315 266.5,162.5C 266.56,161.957 266.893,161.624 267.5,161.5C 268.429,162.689 268.762,164.022 268.5,165.5 Z M 263.5,197.5 C 266.368,197.085 268.535,198.085 270,200.5C 270.667,206.167 270.667,211.833 270,217.5C 266.528,220.418 263.528,220.085 261,216.5C 260.333,211.5 260.333,206.5 261,201.5C 261.662,200.016 262.496,198.683 263.5,197.5 Z M 276.5,197.5 C 279.368,197.085 281.535,198.085 283,200.5C 283.667,206.167 283.667,211.833 283,217.5C 279.528,220.418 276.528,220.085 274,216.5C 273.333,211.5 273.333,206.5 274,201.5C 274.662,200.016 275.496,198.683 276.5,197.5 Z M 293.5,197.5 C 294.819,204.677 294.819,212.01 293.5,219.5C 292.67,213.862 292.17,208.196 292,202.5C 291.25,201.874 290.416,201.374 289.5,201C 291.324,200.34 292.657,199.173 293.5,197.5 Z M 306.5,197.5 C 307.819,204.677 307.819,212.01 306.5,219.5C 305.67,213.862 305.17,208.196 305,202.5C 304.25,201.874 303.416,201.374 302.5,201C 304.324,200.34 305.657,199.173 306.5,197.5 Z M 319.5,197.5 C 320.819,204.677 320.819,212.01 319.5,219.5C 318.67,213.862 318.17,208.196 318,202.5C 317.25,201.874 316.416,201.374 315.5,201C 317.324,200.34 318.657,199.173 319.5,197.5 Z M 332.5,197.5 C 333.819,204.677 333.819,212.01 332.5,219.5C 331.67,213.862 331.17,208.196 331,202.5C 330.25,201.874 329.416,201.374 328.5,201C 330.324,200.34 331.657,199.173 332.5,197.5 Z M 348.5,199.5 C 348.5,205.5 348.5,211.5 348.5,217.5C 346.164,219.391 343.498,219.891 340.5,219C 339.357,212.582 339.19,206.082 340,199.5C 342.749,197.047 345.583,197.047 348.5,199.5 Z M 354.5,201.5 C 355.167,200.833 355.833,200.167 356.5,199.5C 357.458,199.047 358.292,198.381 359,197.5C 359.831,204.856 359.665,212.189 358.5,219.5C 357.67,213.862 357.17,208.196 357,202.5C 356.329,201.748 355.496,201.414 354.5,201.5 Z"/></g>
<g><path style="opacity:0.998" fill="#fcd520" d="M 382.5,162.5 C 383.15,162.804 383.817,163.137 384.5,163.5C 385.663,169.137 385.83,174.804 385,180.5C 383.667,181.833 382.333,181.833 381,180.5C 379.95,174.215 380.45,168.215 382.5,162.5 Z"/></g>
<g><path style="opacity:1" fill="#fcd725" d="M 369.5,162.5 C 370.15,162.804 370.817,163.137 371.5,163.5C 372.663,169.137 372.83,174.804 372,180.5C 370.667,181.833 369.333,181.833 368,180.5C 366.95,174.215 367.45,168.215 369.5,162.5 Z"/></g>
<g><path style="opacity:1" fill="#fdd81f" d="M 343.5,162.5 C 344.15,162.804 344.817,163.137 345.5,163.5C 346.663,169.137 346.83,174.804 346,180.5C 344.667,181.833 343.333,181.833 342,180.5C 340.95,174.215 341.45,168.215 343.5,162.5 Z"/></g>
<g><path style="opacity:0.957" fill="#fcd722" d="M 317.5,162.5 C 318.458,162.953 319.292,163.619 320,164.5C 320.829,169.864 320.663,175.198 319.5,180.5C 318.28,181.711 317.113,181.711 316,180.5C 314.95,174.215 315.45,168.215 317.5,162.5 Z"/></g>
<g><path style="opacity:0.991" fill="#fdd620" d="M 126.5,126.5 C 123.707,123.914 120.874,123.914 118,126.5C 117.333,132.5 117.333,138.5 118,144.5C 122.506,147.7 125.672,146.7 127.5,141.5C 128.326,136.684 128.826,131.684 129,126.5C 129.761,133.531 129.595,140.531 128.5,147.5C 128.887,149.274 129.553,150.941 130.5,152.5C 128.676,154.489 126.676,156.323 124.5,158C 125.337,159.011 125.67,160.178 125.5,161.5C 123.405,162.412 121.405,163.579 119.5,165C 120.448,165.483 121.448,165.649 122.5,165.5C 122.5,171.167 122.5,176.833 122.5,182.5C 123.791,182.737 124.791,182.404 125.5,181.5C 128.174,183.18 130.174,185.513 131.5,188.5C 130.766,190.815 129.432,192.648 127.5,194C 128.784,194.684 129.951,194.517 131,193.5C 131.535,195.271 132.369,195.604 133.5,194.5C 134.106,192.36 133.773,190.193 132.5,188C 133.025,187.308 133.692,186.808 134.5,186.5C 135.885,187.551 136.885,188.884 137.5,190.5C 139.475,194.84 138.141,197.174 133.5,197.5C 132.531,198.309 131.698,199.309 131,200.5C 130.333,206.167 130.333,211.833 131,217.5C 133.153,219.444 135.653,219.944 138.5,219C 140.488,213.351 140.988,207.518 140,201.5C 139.338,200.016 138.504,198.683 137.5,197.5C 140.369,195.696 143.369,195.362 146.5,196.5C 148.092,193.554 147.258,191.554 144,190.5C 143.764,188.236 143.264,186.069 142.5,184C 143.044,183.283 143.711,182.783 144.5,182.5C 148.265,184.203 151.098,183.203 153,179.5C 153.667,174.5 153.667,169.5 153,164.5C 150.472,160.915 147.472,160.582 144,163.5C 143.501,168.823 143.334,174.156 143.5,179.5C 142.533,180.806 141.199,181.473 139.5,181.5C 141.133,174.84 140.8,168.34 138.5,162C 135.502,161.109 132.836,161.609 130.5,163.5C 129.295,162.328 129.295,160.995 130.5,159.5C 133.801,156.552 137.301,153.885 141,151.5C 141.49,150.207 141.657,148.873 141.5,147.5C 140.022,147.238 138.689,147.571 137.5,148.5C 135.956,149.747 134.456,151.08 133,152.5C 132.5,152 132,151.5 131.5,151C 133.037,149.89 133.703,148.39 133.5,146.5C 136.056,146.868 138.056,146.034 139.5,144C 140.394,140.224 140.728,136.39 140.5,132.5C 140.972,130.469 141.972,128.802 143.5,127.5C 143.09,133.621 143.59,139.621 145,145.5C 147.785,146.907 150.285,146.574 152.5,144.5C 154.117,145.038 155.784,145.371 157.5,145.5C 162.683,147.742 165.683,146.076 166.5,140.5C 167.148,138.502 167.981,136.502 169,134.5C 169.714,139.067 168.881,143.233 166.5,147C 167.167,147.667 167.833,148.333 168.5,149C 166.503,150.153 166.17,151.653 167.5,153.5C 171.113,151.871 174.446,149.871 177.5,147.5C 177.783,148.289 178.283,148.956 179,149.5C 179.49,148.207 179.657,146.873 179.5,145.5C 181.179,145.715 182.179,145.048 182.5,143.5C 183.267,144.172 183.934,145.005 184.5,146C 191.001,146.997 193.667,144.163 192.5,137.5C 193.319,134.695 193.819,131.695 194,128.5C 194.333,131.5 194.667,134.5 195,137.5C 195.36,135.392 196.027,133.392 197,131.5C 197.333,132.833 197.667,134.167 198,135.5C 198.497,133.19 198.663,130.857 198.5,128.5C 198.833,128.5 199.167,128.5 199.5,128.5C 199.334,134.842 199.5,141.175 200,147.5C 200.309,148.766 200.809,149.933 201.5,151C 200.296,152.353 199.629,154.019 199.5,156C 200.094,158.673 200.094,161.173 199.5,163.5C 199.389,164.117 199.056,164.617 198.5,165C 200.425,170.536 201.092,176.369 200.5,182.5C 201.5,182.5 202.5,182.5 203.5,182.5C 203.5,175.5 203.5,168.5 203.5,161.5C 204.655,168.655 204.822,175.988 204,183.5C 201.257,184.629 198.591,184.295 196,182.5C 194.096,183.63 192.263,183.63 190.5,182.5C 190.783,181.711 191.283,181.044 192,180.5C 192.667,175.167 192.667,169.833 192,164.5C 189.472,160.915 186.472,160.582 183,163.5C 182.212,169.582 182.379,175.582 183.5,181.5C 181.738,183.417 179.571,184.75 177,185.5C 175.541,185.192 174.374,184.525 173.5,183.5C 176.148,183.262 177.982,181.928 179,179.5C 179.903,173.719 179.57,168.053 178,162.5C 175.084,160.987 172.418,161.32 170,163.5C 169.501,168.823 169.334,174.156 169.5,179.5C 168.069,180.78 167.402,182.447 167.5,184.5C 166.167,184.5 164.833,184.5 163.5,184.5C 163.5,185.5 163.5,186.5 163.5,187.5C 164.552,187.351 165.552,187.517 166.5,188C 165.269,189.183 165.269,190.349 166.5,191.5C 168.661,192.035 170.661,192.868 172.5,194C 171.5,194.833 170.5,195.667 169.5,196.5C 170.325,197.386 171.325,197.719 172.5,197.5C 171.531,198.309 170.698,199.309 170,200.5C 169.333,206.167 169.333,211.833 170,217.5C 172.876,219.463 173.209,221.796 171,224.5C 162.465,227.39 153.632,229.556 144.5,231C 142.248,232.087 140.915,233.921 140.5,236.5C 132.593,232.704 128.927,235.37 129.5,244.5C 128.264,245.246 126.93,245.579 125.5,245.5C 125.823,241.774 125.489,238.107 124.5,234.5C 123.183,236.159 121.517,237.326 119.5,238C 120.448,238.483 121.448,238.649 122.5,238.5C 122.5,241.167 122.5,243.833 122.5,246.5C 119.833,246.167 117.167,245.833 114.5,245.5C 114.699,242.059 114.199,238.726 113,235.5C 111.644,234.62 110.144,234.286 108.5,234.5C 108.229,226.696 105.396,220.029 100,214.5C 99.8299,208.804 99.3299,203.138 98.5,197.5C 96.4384,200.846 93.7718,201.346 90.5,199C 86.8895,195.231 83.8895,191.064 81.5,186.5C 78.8122,183.978 75.9789,181.644 73,179.5C 72.5343,176.688 73.0343,174.021 74.5,171.5C 75.7481,172.04 76.9148,172.707 78,173.5C 78.2695,176.224 78.7695,178.891 79.5,181.5C 81.9556,184.08 84.4556,184.08 87,181.5C 89.1315,174.901 88.9648,168.401 86.5,162C 83.6529,161.056 81.1529,161.556 79,163.5C 78.8184,166.226 78.3184,168.893 77.5,171.5C 73.8518,169.207 72.0185,165.873 72,161.5C 71.586,161.957 71.086,162.291 70.5,162.5C 69.5409,159.378 69.5409,156.212 70.5,153C 69.8333,150.667 69.1667,148.333 68.5,146C 69.8655,139.902 70.5321,140.069 70.5,146.5C 72.9418,146.881 73.6085,146.214 72.5,144.5C 73.1892,142.556 73.6892,140.556 74,138.5C 74.6995,136.968 75.8662,135.968 77.5,135.5C 78.3214,138.447 78.8214,141.447 79,144.5C 80.4443,146.155 82.2776,146.822 84.5,146.5C 85.344,148.759 87.0107,149.759 89.5,149.5C 88.5406,155.867 90.8739,160.2 96.5,162.5C 95.9423,163.79 94.9423,164.623 93.5,165C 94.448,165.483 95.448,165.649 96.5,165.5C 96.5,171.167 96.5,176.833 96.5,182.5C 97.5,182.5 98.5,182.5 99.5,182.5C 99.5,175.5 99.5,168.5 99.5,161.5C 100.329,168.655 100.829,175.989 101,183.5C 101.414,183.043 101.914,182.709 102.5,182.5C 103.534,185.125 104.534,185.125 105.5,182.5C 108.212,183.99 110.712,183.656 113,181.5C 114.956,175.193 114.956,168.859 113,162.5C 110.959,161.577 108.792,161.244 106.5,161.5C 105.626,159.31 103.959,158.31 101.5,158.5C 101.739,156.533 101.406,154.699 100.5,153C 101.219,150.444 102.886,149.277 105.5,149.5C 105.371,147.784 105.038,146.117 104.5,144.5C 107.683,147.295 110.683,147.128 113.5,144C 114.592,138.874 114.759,133.707 114,128.5C 113.52,126.867 112.687,125.534 111.5,124.5C 112.847,123.829 114.014,123.829 115,124.5C 118.785,121.048 122.785,120.715 127,123.5C 127.74,124.749 127.573,125.749 126.5,126.5 Z M 203.5,161.5 C 203.5,168.5 203.5,175.5 203.5,182.5C 202.5,182.5 201.5,182.5 200.5,182.5C 201.092,176.369 200.425,170.536 198.5,165C 199.056,164.617 199.389,164.117 199.5,163.5C 200.833,162.833 202.167,162.167 203.5,161.5 Z M 190.5,182.5 C 187.997,183.765 185.663,183.432 183.5,181.5C 182.379,175.582 182.212,169.582 183,163.5C 186.472,160.582 189.472,160.915 192,164.5C 192.667,169.833 192.667,175.167 192,180.5C 191.283,181.044 190.783,181.711 190.5,182.5 Z M 173.5,183.5 C 171.672,182.717 170.339,181.384 169.5,179.5C 169.334,174.156 169.501,168.823 170,163.5C 172.418,161.32 175.084,160.987 178,162.5C 179.57,168.053 179.903,173.719 179,179.5C 177.982,181.928 176.148,183.262 173.5,183.5 Z M 158.5,161.5 C 160.527,161.338 162.527,161.505 164.5,162C 165.126,162.75 165.626,163.584 166,164.5C 166.667,169.5 166.667,174.5 166,179.5C 163.433,184.295 160.433,184.628 157,180.5C 156.333,174.833 156.333,169.167 157,163.5C 157.717,162.956 158.217,162.289 158.5,161.5 Z M 144.5,182.5 C 144.443,181.391 144.11,180.391 143.5,179.5C 143.334,174.156 143.501,168.823 144,163.5C 147.472,160.582 150.472,160.915 153,164.5C 153.667,169.5 153.667,174.5 153,179.5C 151.098,183.203 148.265,184.203 144.5,182.5 Z M 139.5,181.5 C 136.347,184.182 133.513,183.848 131,180.5C 130.501,174.843 130.334,169.176 130.5,163.5C 132.836,161.609 135.502,161.109 138.5,162C 140.8,168.34 141.133,174.84 139.5,181.5 Z M 125.5,161.5 C 125.5,168.167 125.5,174.833 125.5,181.5C 124.791,182.404 123.791,182.737 122.5,182.5C 122.5,176.833 122.5,171.167 122.5,165.5C 121.448,165.649 120.448,165.483 119.5,165C 121.405,163.579 123.405,162.412 125.5,161.5 Z M 106.5,161.5 C 108.792,161.244 110.959,161.577 113,162.5C 114.956,168.859 114.956,175.193 113,181.5C 110.712,183.656 108.212,183.99 105.5,182.5C 103.847,175.283 104.181,168.283 106.5,161.5 Z M 99.5,161.5 C 99.5,168.5 99.5,175.5 99.5,182.5C 98.5,182.5 97.5,182.5 96.5,182.5C 96.5,176.833 96.5,171.167 96.5,165.5C 95.448,165.649 94.448,165.483 93.5,165C 94.9423,164.623 95.9423,163.79 96.5,162.5C 97.391,161.89 98.391,161.557 99.5,161.5 Z M 126.5,126.5 C 127.392,131.438 127.726,136.438 127.5,141.5C 125.672,146.7 122.506,147.7 118,144.5C 117.333,138.5 117.333,132.5 118,126.5C 120.874,123.914 123.707,123.914 126.5,126.5 Z M 107.5,197.5 C 110.808,196.974 112.974,198.307 114,201.5C 114.988,207.518 114.488,213.351 112.5,219C 109.166,220.212 106.666,219.379 105,216.5C 104.333,211.167 104.333,205.833 105,200.5C 105.698,199.309 106.531,198.309 107.5,197.5 Z M 123.5,197.5 C 125.463,204.424 126.13,211.757 125.5,219.5C 124.5,219.5 123.5,219.5 122.5,219.5C 122.5,213.5 122.5,207.5 122.5,201.5C 118.551,201.307 118.551,200.807 122.5,200C 123.252,199.329 123.586,198.496 123.5,197.5 Z M 133.5,197.5 C 134.833,197.5 136.167,197.5 137.5,197.5C 138.504,198.683 139.338,200.016 140,201.5C 140.988,207.518 140.488,213.351 138.5,219C 135.653,219.944 133.153,219.444 131,217.5C 130.333,211.833 130.333,206.167 131,200.5C 131.698,199.309 132.531,198.309 133.5,197.5 Z M 149.5,197.5 C 151.463,204.424 152.13,211.757 151.5,219.5C 150.5,219.5 149.5,219.5 148.5,219.5C 149.097,213.04 148.43,206.874 146.5,201C 148.426,200.578 149.426,199.411 149.5,197.5 Z M 159.5,197.5 C 162.808,196.974 164.974,198.307 166,201.5C 166.667,206.5 166.667,211.5 166,216.5C 163.472,220.085 160.472,220.418 157,217.5C 156.333,211.833 156.333,206.167 157,200.5C 157.698,199.309 158.531,198.309 159.5,197.5 Z"/></g>
<g><path style="opacity:0.988" fill="#fdd61f" d="M 82.5,162.5 C 83.1499,162.804 83.8165,163.137 84.5,163.5C 85.6632,169.137 85.8299,174.804 85,180.5C 83.8869,181.711 82.7202,181.711 81.5,180.5C 80.3372,175.198 80.1705,169.864 81,164.5C 81.7172,163.956 82.2172,163.289 82.5,162.5 Z"/></g>
<g><path style="opacity:0.872" fill="#fdd724" d="M 186.5,162.5 C 187.496,162.414 188.329,162.748 189,163.5C 189.667,169.167 189.667,174.833 189,180.5C 187.413,181.727 186.079,181.394 185,179.5C 184.333,174.5 184.333,169.5 185,164.5C 185.717,163.956 186.217,163.289 186.5,162.5 Z"/></g>
<g><path style="opacity:1" fill="#fdd724" d="M 173.5,162.5 C 174.496,162.414 175.329,162.748 176,163.5C 176.667,169.167 176.667,174.833 176,180.5C 174.413,181.727 173.079,181.394 172,179.5C 171.333,174.5 171.333,169.5 172,164.5C 172.717,163.956 173.217,163.289 173.5,162.5 Z"/></g>
<g><path style="opacity:1" fill="#fcd71f" d="M 160.5,162.5 C 161.496,162.414 162.329,162.748 163,163.5C 163.667,169.167 163.667,174.833 163,180.5C 161.413,181.727 160.079,181.394 159,179.5C 158.333,174.5 158.333,169.5 159,164.5C 159.717,163.956 160.217,163.289 160.5,162.5 Z"/></g>
<g><path style="opacity:0.929" fill="#fdd921" d="M 147.5,162.5 C 148.15,162.804 148.817,163.137 149.5,163.5C 150.663,169.137 150.83,174.804 150,180.5C 148.887,181.711 147.72,181.711 146.5,180.5C 145.337,175.198 145.171,169.864 146,164.5C 146.717,163.956 147.217,163.289 147.5,162.5 Z"/></g>
<g><path style="opacity:0.949" fill="#fbd921" d="M 134.5,162.5 C 135.15,162.804 135.817,163.137 136.5,163.5C 137.663,169.137 137.83,174.804 137,180.5C 135.887,181.711 134.72,181.711 133.5,180.5C 132.337,175.198 132.171,169.864 133,164.5C 133.717,163.956 134.217,163.289 134.5,162.5 Z"/></g>
<g><path style="opacity:1" fill="#fdd522" d="M 108.5,162.5 C 109.15,162.804 109.817,163.137 110.5,163.5C 111.663,169.137 111.83,174.804 111,180.5C 109.887,181.711 108.72,181.711 107.5,180.5C 106.337,175.198 106.171,169.864 107,164.5C 107.717,163.956 108.217,163.289 108.5,162.5 Z"/></g>
<g><path style="opacity:0.956" fill="#fdd71e" d="M 120.5,126.5 C 121.833,126.5 123.167,126.5 124.5,126.5C 124.5,132.5 124.5,138.5 124.5,144.5C 122.856,144.714 121.356,144.38 120,143.5C 119.215,137.751 119.382,132.084 120.5,126.5 Z"/></g>
<g><path style="opacity:0.896" fill="#f5d823" d="M 198.5,199.5 C 205.112,200.972 205.112,202.972 198.5,205.5C 197.481,203.54 197.481,201.54 198.5,199.5 Z"/></g>
<g><path style="opacity:0.969" fill="#fcd823" d="M 133.5,199.5 C 134.822,199.33 135.989,199.663 137,200.5C 137.499,206.157 137.666,211.824 137.5,217.5C 135.856,217.714 134.356,217.38 133,216.5C 132.215,210.751 132.382,205.084 133.5,199.5 Z"/></g>
<g><path style="opacity:0.498" fill="#f0d423" d="M 94.5,201.5 C 96.0853,202.474 97.0853,203.974 97.5,206C 97,206.5 96.5,207 96,207.5C 94.6814,205.75 94.1814,203.75 94.5,201.5 Z"/></g>
<g><path style="opacity:1" fill="#fbd720" d="M 185.5,199.5 C 186.822,199.33 187.989,199.663 189,200.5C 189.497,203.146 189.664,205.813 189.5,208.5C 187.833,208.5 186.167,208.5 184.5,208.5C 184.368,205.43 184.701,202.43 185.5,199.5 Z"/></g>
<g><path style="opacity:0.91" fill="#fcd723" d="M 159.5,199.5 C 160.822,199.33 161.989,199.663 163,200.5C 163.499,206.157 163.666,211.824 163.5,217.5C 161.856,217.714 160.356,217.38 159,216.5C 158.215,210.751 158.382,205.084 159.5,199.5 Z"/></g>
<g><path style="opacity:1" fill="#fbd71f" d="M 264.5,199.5 C 265.822,199.33 266.989,199.663 268,200.5C 268.667,205.833 268.667,211.167 268,216.5C 266.644,217.38 265.144,217.714 263.5,217.5C 263.211,211.409 263.545,205.409 264.5,199.5 Z"/></g>
<g><path style="opacity:0.922" fill="#fbd722" d="M 277.5,199.5 C 278.822,199.33 279.989,199.663 281,200.5C 281.667,205.833 281.667,211.167 281,216.5C 279.644,217.38 278.144,217.714 276.5,217.5C 276.211,211.409 276.545,205.409 277.5,199.5 Z"/></g>
<g><path style="opacity:0.98" fill="#fbd920" d="M 342.5,199.5 C 343.822,199.33 344.989,199.663 346,200.5C 346.667,205.833 346.667,211.167 346,216.5C 344.644,217.38 343.144,217.714 341.5,217.5C 341.211,211.409 341.545,205.409 342.5,199.5 Z"/></g>
<g><path style="opacity:1" fill="#fbd822" d="M 368.5,199.5 C 369.822,199.33 370.989,199.663 372,200.5C 372.667,205.833 372.667,211.167 372,216.5C 370.644,217.38 369.144,217.714 367.5,217.5C 367.211,211.409 367.545,205.409 368.5,199.5 Z"/></g>
<g><path style="opacity:1" fill="#fcd723" d="M 172.5,199.5 C 173.822,199.33 174.989,199.663 176,200.5C 176.667,205.5 176.667,210.5 176,215.5C 175,216.167 174,216.833 173,217.5C 171.196,211.623 171.029,205.623 172.5,199.5 Z"/></g>
<g><path style="opacity:1" fill="#fcd81c" d="M 107.5,199.5 C 108.822,199.33 109.989,199.663 111,200.5C 111.499,206.157 111.666,211.824 111.5,217.5C 109.856,217.714 108.356,217.38 107,216.5C 106.215,210.751 106.382,205.084 107.5,199.5 Z"/></g>
<g><path style="opacity:0.278" fill="#fcd628" d="M 133.5,236.5 C 134.978,236.238 136.311,236.571 137.5,237.5C 135.833,238.5 134.5,239.833 133.5,241.5C 132.334,239.833 132.334,238.166 133.5,236.5 Z"/></g>
<g><path style="opacity:0.129" fill="#f9d22b" d="M 291.5,236.5 C 294.423,237.163 295.09,238.83 293.5,241.5C 291.783,240.332 291.116,238.665 291.5,236.5 Z"/></g>
<g><path style="opacity:1" fill="#fbd51c" d="M 107.5,236.5 C 108.833,236.5 110.167,236.5 111.5,236.5C 111.5,238.833 111.5,241.167 111.5,243.5C 106.59,243.424 105.257,241.09 107.5,236.5 Z"/></g>
<g><path style="opacity:0.945" fill="#fcd521" d="M 302.5,236.5 C 304.144,236.286 305.644,236.62 307,237.5C 307.667,241.167 307.667,244.833 307,248.5C 305.413,249.727 304.079,249.394 303,247.5C 302.501,243.848 302.335,240.182 302.5,236.5 Z"/></g>
<g><path style="opacity:0.999" fill="#43aa31" d="M 282.5,257.5 C 309.429,255.095 322.429,267.428 321.5,294.5C 314.5,294.5 307.5,294.5 300.5,294.5C 300.666,290.486 300.499,286.486 300,282.5C 296.774,277.234 292.274,275.734 286.5,278C 284.951,279.214 283.785,280.714 283,282.5C 280.881,292.135 283.214,300.468 290,307.5C 296.858,313.602 303.525,319.936 310,326.5C 322.849,342.564 324.849,359.897 316,378.5C 307.145,387.762 296.312,391.262 283.5,389C 272.925,387.302 265.758,381.469 262,371.5C 260.263,363.934 259.429,356.267 259.5,348.5C 266.5,348.5 273.5,348.5 280.5,348.5C 280.334,353.511 280.501,358.511 281,363.5C 284.702,369.542 289.869,371.042 296.5,368C 297.701,367.097 298.535,365.931 299,364.5C 301.029,355.438 299.029,347.438 293,340.5C 283.574,332.144 274.907,323.144 267,313.5C 258.021,297.216 258.354,281.216 268,265.5C 272.408,261.883 277.241,259.217 282.5,257.5 Z"/></g>
<g><path style="opacity:0.999" fill="#fdd41f" d="M 366.5,258.5 C 385.167,258.5 403.833,258.5 422.5,258.5C 422.5,265.167 422.5,271.833 422.5,278.5C 411.167,278.5 399.833,278.5 388.5,278.5C 388.5,289.833 388.5,301.167 388.5,312.5C 397.5,312.5 406.5,312.5 415.5,312.5C 415.5,319.167 415.5,325.833 415.5,332.5C 406.5,332.5 397.5,332.5 388.5,332.5C 388.821,344.414 388.488,356.247 387.5,368C 399.162,368.5 410.829,368.667 422.5,368.5C 422.5,375.167 422.5,381.833 422.5,388.5C 403.924,388.826 385.424,388.493 367,387.5C 366.5,344.501 366.333,301.501 366.5,258.5 Z"/></g>
<g><path style="opacity:0.997" fill="#fdd41f" d="M 45.5,258.5 C 56.2581,257.872 66.7581,258.538 77,260.5C 83.8816,303.172 90.7149,345.839 97.5,388.5C 90.4921,388.666 83.4921,388.5 76.5,388C 74.2882,380.359 72.9549,372.525 72.5,364.5C 64.5,364.5 56.5,364.5 48.5,364.5C 47.7234,372.272 46.39,379.938 44.5,387.5C 38.2266,388.46 31.8933,388.793 25.5,388.5C 32.1667,345.167 38.8333,301.833 45.5,258.5 Z M 59.5,288.5 C 63.2396,307.488 66.573,326.655 69.5,346C 63.5092,346.499 57.5092,346.666 51.5,346.5C 54.447,327.205 57.1136,307.871 59.5,288.5 Z"/></g>
<g><path style="opacity:1" fill="#43aa31" d="M 123.5,258.5 C 128.5,258.5 133.5,258.5 138.5,258.5C 138.5,264.5 138.5,270.5 138.5,276.5C 133.365,275.426 129.532,277.093 127,281.5C 126,292.167 125,302.833 124,313.5C 122.895,318.206 120.062,321.373 115.5,323C 119.817,325.315 122.65,328.815 124,333.5C 125.173,342.116 125.839,350.783 126,359.5C 125.948,367.948 130.115,371.614 138.5,370.5C 138.808,376.425 138.475,382.259 137.5,388C 129.914,388.773 122.58,387.773 115.5,385C 110.761,381.687 107.928,377.187 107,371.5C 106.312,359.795 105.312,348.128 104,336.5C 103.626,335.584 103.126,334.75 102.5,334C 100.02,333.04 97.5197,332.207 95,331.5C 94.5006,325.843 94.3339,320.176 94.5,314.5C 98.5693,314.986 101.736,313.653 104,310.5C 105.258,298.867 106.258,287.2 107,275.5C 108.68,265.988 114.18,260.322 123.5,258.5 Z"/></g>
<g><path style="opacity:0.945" fill="#fcd721" d="M 326.5,266.5 C 330.683,267.257 334.683,268.59 338.5,270.5C 342.5,269.5 346.5,268.5 350.5,267.5C 351.442,267.608 352.275,267.941 353,268.5C 353.667,271.833 353.667,275.167 353,278.5C 352.801,280.402 351.967,281.902 350.5,283C 351.022,283.561 351.355,284.228 351.5,285C 350.115,286.597 349.449,288.43 349.5,290.5C 348.5,290.5 347.5,290.5 346.5,290.5C 346.83,284.132 346.496,277.798 345.5,271.5C 344.315,272.853 342.981,274.02 341.5,275C 342.448,275.483 343.448,275.649 344.5,275.5C 344.829,281.206 344.495,286.872 343.5,292.5C 340.784,294.52 337.784,294.854 334.5,293.5C 335.546,286.87 335.713,280.203 335,273.5C 332.624,271.256 329.957,270.923 327,272.5C 326.308,271.975 325.808,271.308 325.5,270.5C 326.246,269.264 326.579,267.93 326.5,266.5 Z"/></g>
<g><path style="opacity:0.833" fill="#fbd723" d="M 329.5,272.5 C 330.583,272.539 331.583,272.873 332.5,273.5C 333.833,278.5 333.833,283.5 332.5,288.5C 331.201,287.91 330.368,286.91 330,285.5C 328.909,281.102 328.742,276.769 329.5,272.5 Z"/></g>
<g><path style="opacity:0.999" fill="#43aa31" d="M 213.5,257.5 C 241.121,254.455 254.121,266.788 252.5,294.5C 245.833,294.5 239.167,294.5 232.5,294.5C 232.866,289.284 232.032,284.284 230,279.5C 224.695,275.493 219.695,275.827 215,280.5C 212.268,289.185 213.601,297.185 219,304.5C 227,312.5 235,320.5 243,328.5C 252.854,342.246 255.187,357.246 250,373.5C 242.365,386.731 230.865,391.897 215.5,389C 202.373,386.54 194.54,378.707 192,365.5C 191.501,359.843 191.334,354.176 191.5,348.5C 198.167,348.5 204.833,348.5 211.5,348.5C 211.161,353.93 211.661,359.264 213,364.5C 215.897,369.155 220.063,370.655 225.5,369C 229.841,366.714 231.841,363.047 231.5,358C 231.049,352.313 229.216,347.146 226,342.5C 216.636,333.47 207.636,324.137 199,314.5C 189.59,298.947 189.257,283.28 198,267.5C 202.194,262.496 207.361,259.163 213.5,257.5 Z"/></g>
<g><path style="opacity:1" fill="#43aa30" d="M 149.5,258.5 C 156.241,258.171 162.908,258.671 169.5,260C 177.555,263.931 181.722,270.431 182,279.5C 182.471,289.18 183.138,298.847 184,308.5C 185.411,313.129 188.577,315.129 193.5,314.5C 193.5,320.5 193.5,326.5 193.5,332.5C 189.987,331.876 187.153,332.876 185,335.5C 183.355,348.115 182.022,360.782 181,373.5C 179.264,380.237 175.097,384.737 168.5,387C 162.483,388.321 156.483,388.487 150.5,387.5C 149.505,381.872 149.171,376.206 149.5,370.5C 154.039,371.043 157.873,369.71 161,366.5C 162.605,356.239 163.605,345.905 164,335.5C 165.118,329.76 168.284,325.594 173.5,323C 168.191,321.017 165.024,317.184 164,311.5C 163.422,302.16 162.755,292.827 162,283.5C 161.529,281.754 160.862,280.087 160,278.5C 156.715,276.863 153.215,276.196 149.5,276.5C 149.5,270.5 149.5,264.5 149.5,258.5 Z"/></g>
<g><path style="opacity:1" fill="#fdd420" d="M 331.5,298.5 C 338.833,298.5 346.167,298.5 353.5,298.5C 353.667,328.169 353.5,357.835 353,387.5C 346,388.833 339,388.833 332,387.5C 331.5,357.835 331.333,328.169 331.5,298.5 Z"/></g>
<g><path style="opacity:0.554" fill="#565655" d="M 27.5,401.5 C 28.8333,401.5 30.1667,401.5 31.5,401.5C 32.8088,412.069 33.4755,412.069 33.5,401.5C 34.5,401.5 35.5,401.5 36.5,401.5C 37.1667,417.5 37.8333,417.5 38.5,401.5C 40.1238,401.36 41.2904,402.027 42,403.5C 45.4022,402.211 49.0688,401.544 53,401.5C 56.5,401.667 60,401.833 63.5,402C 63.8954,405.614 64.3954,409.114 65,412.5C 65.9358,408.886 66.4358,405.22 66.5,401.5C 68.1439,401.286 69.6439,401.62 71,402.5C 71.7745,406.147 72.4412,409.814 73,413.5C 73.4988,409.514 73.6655,405.514 73.5,401.5C 74.5,401.5 75.5,401.5 76.5,401.5C 76.5,405.5 76.5,409.5 76.5,413.5C 77.8333,413.5 79.1667,413.5 80.5,413.5C 80.5,409.5 80.5,405.5 80.5,401.5C 81.5,401.5 82.5,401.5 83.5,401.5C 83.5189,413.411 84.1856,413.411 85.5,401.5C 86.8333,401.5 88.1667,401.5 89.5,401.5C 90.812,413.413 91.4786,413.413 91.5,401.5C 95.3518,401.489 97.1851,403.489 97,407.5C 97.1922,405.423 97.6922,403.423 98.5,401.5C 99.4941,406.456 99.8275,411.456 99.5,416.5C 98.5,416.5 97.5,416.5 96.5,416.5C 95.2004,407.276 94.5338,407.276 94.5,416.5C 92.5,416.5 90.5,416.5 88.5,416.5C 88.1806,412.7 87.1806,412.534 85.5,416C 80.5111,416.499 75.5111,416.666 70.5,416.5C 70.5,415.5 70.5,414.5 70.5,413.5C 69.5,413.5 68.5,413.5 67.5,413.5C 67.5,414.5 67.5,415.5 67.5,416.5C 65.5,416.5 63.5,416.5 61.5,416.5C 60.8333,408.5 60.1667,408.5 59.5,416.5C 58.5,416.5 57.5,416.5 56.5,416.5C 55.8333,400.5 55.1667,400.5 54.5,416.5C 53.5,416.5 52.5,416.5 51.5,416.5C 51.8242,412.445 51.4909,408.445 50.5,404.5C 48.8333,407.167 47.1667,407.167 45.5,404.5C 45.1667,404.833 44.8333,405.167 44.5,405.5C 45.8149,407.316 47.3149,408.983 49,410.5C 50.3927,414.202 49.226,416.202 45.5,416.5C 44.0055,416.291 42.8388,415.624 42,414.5C 41.5,415 41,415.5 40.5,416C 37.8517,416.099 35.3517,416.265 33,416.5C 31.416,416.012 30.2494,415.012 29.5,413.5C 28.6143,414.325 28.281,415.325 28.5,416.5C 27.5,416.5 26.5,416.5 25.5,416.5C 26.0582,411.484 26.7249,406.484 27.5,401.5 Z M 59.5,404.5 C 61.4646,404.948 61.7979,405.948 60.5,407.5C 59.6143,406.675 59.281,405.675 59.5,404.5 Z M 41.5,406.5 C 43.1139,408.456 44.7806,410.456 46.5,412.5C 46.1667,412.833 45.8333,413.167 45.5,413.5C 44.4763,412.147 43.143,411.48 41.5,411.5C 41.5,409.833 41.5,408.167 41.5,406.5 Z M 29.5,409.5 C 30.7733,410.077 30.7733,410.743 29.5,411.5C 28.537,411.03 28.537,410.363 29.5,409.5 Z M 86.5,409.5 C 87.2891,409.783 87.9558,410.283 88.5,411C 87.184,411.528 86.5173,411.028 86.5,409.5 Z"/></g>
<g><path style="opacity:0.576" fill="#535353" d="M 104.5,401.5 C 107.547,400.855 109.713,401.855 111,404.5C 111.483,403.552 111.649,402.552 111.5,401.5C 115.142,402.047 118.642,402.047 122,401.5C 123.658,401.675 124.991,402.342 126,403.5C 126.388,402.572 127.055,401.905 128,401.5C 129.735,402.682 130.735,404.349 131,406.5C 131.494,404.866 131.66,403.199 131.5,401.5C 132.5,401.5 133.5,401.5 134.5,401.5C 134.5,406.5 134.5,411.5 134.5,416.5C 133.167,416.5 131.833,416.5 130.5,416.5C 129.51,407.197 128.51,407.197 127.5,416.5C 126.808,415.975 126.308,415.308 126,414.5C 123.894,416.291 121.394,416.958 118.5,416.5C 118.799,414.396 118.466,412.396 117.5,410.5C 115.077,411.712 114.077,413.712 114.5,416.5C 113.5,416.5 112.5,416.5 111.5,416.5C 111.541,412.757 110.874,412.59 109.5,416C 107.559,416.743 105.726,416.576 104,415.5C 103.227,410.748 103.393,406.081 104.5,401.5 Z M 106.5,403.5 C 107.117,403.611 107.617,403.944 108,404.5C 108.821,407.554 108.655,410.554 107.5,413.5C 106.513,410.232 106.18,406.898 106.5,403.5 Z M 121.5,404.5 C 122.833,404.5 124.167,404.5 125.5,404.5C 125.5,405.5 125.5,406.5 125.5,407.5C 124.167,407.5 122.833,407.5 121.5,407.5C 121.5,406.5 121.5,405.5 121.5,404.5 Z M 121.5,410.5 C 122.833,410.5 124.167,410.5 125.5,410.5C 125.5,411.5 125.5,412.5 125.5,413.5C 124.167,413.5 122.833,413.5 121.5,413.5C 121.5,412.5 121.5,411.5 121.5,410.5 Z"/></g>
<g><path style="opacity:0.535" fill="#565655" d="M 138.5,401.5 C 141.044,401.104 143.211,401.771 145,403.5C 145.956,402.106 147.289,401.439 149,401.5C 151.123,402.583 153.29,402.583 155.5,401.5C 156.167,417.5 156.833,417.5 157.5,401.5C 160.85,401.335 164.183,401.502 167.5,402C 168,402.5 168.5,403 169,403.5C 171.333,400.833 173.667,400.833 176,403.5C 178.106,401.709 180.606,401.042 183.5,401.5C 183.5,402.5 183.5,403.5 183.5,404.5C 182.167,404.5 180.833,404.5 179.5,404.5C 179.5,405.5 179.5,406.5 179.5,407.5C 180.5,407.5 181.5,407.5 182.5,407.5C 182.5,408.5 182.5,409.5 182.5,410.5C 181.5,410.5 180.5,410.5 179.5,410.5C 179.5,411.5 179.5,412.5 179.5,413.5C 180.833,413.5 182.167,413.5 183.5,413.5C 183.5,414.5 183.5,415.5 183.5,416.5C 180.606,416.958 178.106,416.291 176,414.5C 173.667,417.167 171.333,417.167 169,414.5C 168.29,415.973 167.124,416.64 165.5,416.5C 164.833,408.5 164.167,408.5 163.5,416.5C 161.29,415.417 159.123,415.417 157,416.5C 155.289,416.561 153.956,415.894 153,414.5C 149.844,417.399 147.178,417.065 145,413.5C 143.419,416.553 141.086,417.22 138,415.5C 137.51,414.207 137.343,412.873 137.5,411.5C 139.29,412.013 140.956,412.513 142.5,413C 141.348,410.851 139.848,409.018 138,407.5C 137.322,405.402 137.489,403.402 138.5,401.5 Z M 140.5,403.5 C 142.796,404.937 143.963,406.937 144,409.5C 141.735,408.084 140.569,406.084 140.5,403.5 Z M 148.5,403.5 C 149.806,406.687 149.806,410.02 148.5,413.5C 147.249,410.126 147.249,406.793 148.5,403.5 Z M 163.5,404.5 C 165.465,404.948 165.798,405.948 164.5,407.5C 163.614,406.675 163.281,405.675 163.5,404.5 Z M 171.5,404.5 C 173.048,404.821 173.715,405.821 173.5,407.5C 174.5,407.5 175.5,407.5 176.5,407.5C 176.5,408.5 176.5,409.5 176.5,410.5C 175.5,410.5 174.5,410.5 173.5,410.5C 173.719,411.675 173.386,412.675 172.5,413.5C 171.516,410.572 171.183,407.572 171.5,404.5 Z"/></g>
<g><path style="opacity:0.593" fill="#555554" d="M 227.5,413.5 C 226.596,414.209 226.263,415.209 226.5,416.5C 224.549,416.773 223.049,416.107 222,414.5C 221.047,416.592 219.714,416.925 218,415.5C 215.717,400.976 214.55,401.31 214.5,416.5C 213.5,416.5 212.5,416.5 211.5,416.5C 211.5,412.5 211.5,408.5 211.5,404.5C 209.5,404.5 207.5,404.5 205.5,404.5C 205.5,405.5 205.5,406.5 205.5,407.5C 206.5,407.5 207.5,407.5 208.5,407.5C 208.5,408.5 208.5,409.5 208.5,410.5C 207.5,410.5 206.5,410.5 205.5,410.5C 205.5,412.5 205.5,414.5 205.5,416.5C 203.876,416.64 202.71,415.973 202,414.5C 199.333,417.167 196.667,417.167 194,414.5C 192.164,416.604 189.998,416.938 187.5,415.5C 186.754,414.264 186.421,412.93 186.5,411.5C 188.143,411.48 189.476,412.147 190.5,413.5C 190.833,413.167 191.167,412.833 191.5,412.5C 189.411,410.42 187.744,408.087 186.5,405.5C 186.498,402.841 187.831,401.507 190.5,401.5C 191.994,401.709 193.161,402.376 194,403.5C 196.718,400.93 199.385,400.93 202,403.5C 207.536,401.575 213.369,400.908 219.5,401.5C 219.833,410.833 220.167,410.833 220.5,401.5C 221.822,401.33 222.989,401.663 224,402.5C 224.981,408.864 225.481,408.531 225.5,401.5C 226.5,401.5 227.5,401.5 228.5,401.5C 227.838,405.466 227.505,409.466 227.5,413.5 Z M 197.5,403.5 C 198.117,403.611 198.617,403.944 199,404.5C 199.821,407.554 199.655,410.554 198.5,413.5C 197.513,410.232 197.18,406.898 197.5,403.5 Z M 189.5,404.5 C 191.011,405.502 192.678,406.169 194.5,406.5C 194.657,407.873 194.49,409.207 194,410.5C 191.873,408.886 190.373,406.886 189.5,404.5 Z"/></g>
<g><path style="opacity:0.547" fill="#565654" d="M 258.5,401.5 C 261.766,401.433 263.266,403.099 263,406.5C 263.494,404.866 263.66,403.199 263.5,401.5C 265.527,401.338 267.527,401.505 269.5,402C 270.882,406.705 271.549,406.539 271.5,401.5C 273.124,401.36 274.29,402.027 275,403.5C 275.839,402.376 277.006,401.709 278.5,401.5C 280.843,402.815 283.177,402.815 285.5,401.5C 285.678,404.216 286.178,406.883 287,409.5C 287.287,407.109 287.787,404.776 288.5,402.5C 289.5,401.167 290.5,401.167 291.5,402.5C 290.349,406.423 289.515,410.423 289,414.5C 287.951,416.107 286.451,416.773 284.5,416.5C 284.219,412.812 283.719,409.145 283,405.5C 282.793,409.089 282.293,412.589 281.5,416C 278.937,416.918 276.77,416.418 275,414.5C 274.612,415.428 273.945,416.095 273,416.5C 271.265,415.318 270.265,413.651 270,411.5C 269.506,413.134 269.34,414.801 269.5,416.5C 267.473,416.662 265.473,416.495 263.5,416C 262.475,413.929 261.642,411.762 261,409.5C 260.814,411.9 260.314,414.234 259.5,416.5C 258.506,411.544 258.173,406.544 258.5,401.5 Z M 277.5,404.5 C 278.765,405.514 279.431,407.014 279.5,409C 279.167,410.5 278.833,412 278.5,413.5C 277.516,410.572 277.183,407.572 277.5,404.5 Z"/></g>
<g><path style="opacity:0.592" fill="#575757" d="M 292.5,401.5 C 293.978,401.238 295.311,401.571 296.5,402.5C 297.393,406.856 298.393,411.189 299.5,415.5C 299,415.833 298.5,416.167 298,416.5C 296.832,415.491 295.665,414.491 294.5,413.5C 293.614,414.325 293.281,415.325 293.5,416.5C 292.5,416.5 291.5,416.5 290.5,416.5C 291.167,411.5 291.833,406.5 292.5,401.5 Z M 294.5,409.5 C 295.773,410.077 295.773,410.743 294.5,411.5C 293.537,411.03 293.537,410.363 294.5,409.5 Z"/></g>
<g><path style="opacity:0.559" fill="#565655" d="M 298.5,401.5 C 302.673,400.956 306.506,401.623 310,403.5C 312.333,400.833 314.667,400.833 317,403.5C 318.049,401.893 319.549,401.227 321.5,401.5C 321.833,406.833 322.167,406.833 322.5,401.5C 323.5,401.5 324.5,401.5 325.5,401.5C 325.5,406.5 325.5,411.5 325.5,416.5C 322.654,416.191 321.154,414.525 321,411.5C 320.506,413.134 320.34,414.801 320.5,416.5C 318.876,416.64 317.71,415.973 317,414.5C 314.667,417.167 312.333,417.167 310,414.5C 309.29,415.973 308.124,416.64 306.5,416.5C 305.833,400.5 305.167,400.5 304.5,416.5C 303.5,416.5 302.5,416.5 301.5,416.5C 301.5,412.5 301.5,408.5 301.5,404.5C 300.5,404.5 299.5,404.5 298.5,404.5C 298.5,403.5 298.5,402.5 298.5,401.5 Z M 312.5,404.5 C 313.765,405.514 314.431,407.014 314.5,409C 314.167,410.5 313.833,412 313.5,413.5C 312.516,410.572 312.183,407.572 312.5,404.5 Z"/></g>
<g><path style="opacity:0.547" fill="#555655" d="M 331.5,401.5 C 332.833,401.5 334.167,401.5 335.5,401.5C 336.815,416.09 337.482,416.09 337.5,401.5C 338.833,401.5 340.167,401.5 341.5,401.5C 341.833,406.833 342.167,406.833 342.5,401.5C 346.106,401.211 349.606,401.544 353,402.5C 353.667,406.833 353.667,411.167 353,415.5C 349.545,416.791 346.045,416.791 342.5,415.5C 341.011,410.354 340.344,410.687 340.5,416.5C 338.5,416.5 336.5,416.5 334.5,416.5C 334.5,415.5 334.5,414.5 334.5,413.5C 333.5,413.5 332.5,413.5 331.5,413.5C 331.5,414.5 331.5,415.5 331.5,416.5C 330.5,416.5 329.5,416.5 328.5,416.5C 329.373,411.469 330.373,406.469 331.5,401.5 Z M 348.5,404.5 C 349.765,405.514 350.431,407.014 350.5,409C 350.167,410.5 349.833,412 349.5,413.5C 348.516,410.572 348.183,407.572 348.5,404.5 Z"/></g>
<g><path style="opacity:0.572" fill="#555654" d="M 356.5,401.5 C 361.179,401.334 365.845,401.501 370.5,402C 371,402.5 371.5,403 372,403.5C 372.71,402.027 373.876,401.36 375.5,401.5C 375.847,417.446 376.847,417.446 378.5,401.5C 379.281,402.729 379.781,404.062 380,405.5C 380.69,401.81 382.857,400.643 386.5,402C 387.406,403.699 387.739,405.533 387.5,407.5C 386.5,407.5 385.5,407.5 384.5,407.5C 384.657,406.127 384.49,404.793 384,403.5C 382.261,406.682 382.095,410.016 383.5,413.5C 384.386,412.675 384.719,411.675 384.5,410.5C 385.5,410.5 386.5,410.5 387.5,410.5C 387.351,411.552 387.517,412.552 388,413.5C 388.559,409.814 389.226,406.147 390,402.5C 391.049,401.483 392.216,401.316 393.5,402C 394.943,406.717 395.943,411.55 396.5,416.5C 395.5,416.5 394.5,416.5 393.5,416.5C 393.5,415.5 393.5,414.5 393.5,413.5C 392.5,413.5 391.5,413.5 390.5,413.5C 390.5,414.5 390.5,415.5 390.5,416.5C 387.644,416.072 384.644,415.905 381.5,416C 380.809,414.933 380.309,413.766 380,412.5C 378.414,416.954 375.747,417.621 372,414.5C 371.5,415 371,415.5 370.5,416C 365.845,416.499 361.179,416.666 356.5,416.5C 356.5,411.5 356.5,406.5 356.5,401.5 Z M 363.5,403.5 C 364.643,406.976 364.81,410.642 364,414.5C 362.644,413.62 361.144,413.286 359.5,413.5C 359.5,412.5 359.5,411.5 359.5,410.5C 360.833,410.5 362.167,410.5 363.5,410.5C 363.5,409.5 363.5,408.5 363.5,407.5C 362.167,407.5 360.833,407.5 359.5,407.5C 359.5,406.5 359.5,405.5 359.5,404.5C 361.099,404.768 362.432,404.434 363.5,403.5 Z M 367.5,404.5 C 368.765,405.514 369.431,407.014 369.5,409C 369.167,410.5 368.833,412 368.5,413.5C 367.516,410.572 367.183,407.572 367.5,404.5 Z"/></g>
<g><path style="opacity:0.641" fill="#565655" d="M 395.5,401.5 C 399.167,401.5 402.833,401.5 406.5,401.5C 406.833,405.5 407.167,405.5 407.5,401.5C 411.315,402.105 414.982,402.105 418.5,401.5C 419.492,409.475 420.492,409.475 421.5,401.5C 422.494,406.456 422.827,411.456 422.5,416.5C 421.5,416.5 420.5,416.5 419.5,416.5C 418.218,408.627 417.551,408.627 417.5,416.5C 414.644,416.072 411.644,415.905 408.5,416C 407.126,412.59 406.459,412.757 406.5,416.5C 405.5,416.5 404.5,416.5 403.5,416.5C 402.833,400.5 402.167,400.5 401.5,416.5C 400.5,416.5 399.5,416.5 398.5,416.5C 398.824,412.445 398.491,408.445 397.5,404.5C 396.081,403.995 395.415,402.995 395.5,401.5 Z M 410.5,403.5 C 411.806,406.687 411.806,410.02 410.5,413.5C 409.249,410.126 409.249,406.793 410.5,403.5 Z"/></g>
<g><path style="opacity:0.552" fill="#565655" d="M 227.5,413.5 C 228.611,409.984 229.611,406.317 230.5,402.5C 231.689,401.571 233.022,401.238 234.5,401.5C 235.819,416.095 236.485,416.095 236.5,401.5C 239.394,401.042 241.894,401.709 244,403.5C 246.106,401.709 248.606,401.042 251.5,401.5C 251.5,402.5 251.5,403.5 251.5,404.5C 250.167,404.5 248.833,404.5 247.5,404.5C 247.5,405.5 247.5,406.5 247.5,407.5C 248.833,407.5 250.167,407.5 251.5,407.5C 251.5,408.5 251.5,409.5 251.5,410.5C 250.167,410.5 248.833,410.5 247.5,410.5C 247.5,411.5 247.5,412.5 247.5,413.5C 248.833,413.5 250.167,413.5 251.5,413.5C 251.5,414.5 251.5,415.5 251.5,416.5C 248.167,416.5 244.833,416.5 241.5,416.5C 240.833,408.5 240.167,408.5 239.5,416.5C 237.5,416.5 235.5,416.5 233.5,416.5C 233.5,415.5 233.5,414.5 233.5,413.5C 232.5,413.5 231.5,413.5 230.5,413.5C 230.5,414.5 230.5,415.5 230.5,416.5C 229.5,416.5 228.5,416.5 227.5,416.5C 227.5,415.5 227.5,414.5 227.5,413.5 Z M 239.5,404.5 C 241.465,404.948 241.798,405.948 240.5,407.5C 239.614,406.675 239.281,405.675 239.5,404.5 Z"/></g>
<g><path style="opacity:0.442" fill="#4f4f4f" d="M 254.5,401.5 C 255.5,401.5 256.5,401.5 257.5,401.5C 257.5,406.5 257.5,411.5 257.5,416.5C 256.5,416.5 255.5,416.5 254.5,416.5C 254.5,411.5 254.5,406.5 254.5,401.5 Z"/></g>
</svg>
